<?xml version="1.0" encoding="UTF-8"?>
<svg version="1.1" xmlns="http://www.w3.org/2000/svg" width="1024" height="1024">
<path d="M0 0 C1.04140137 0.16693359 2.08280273 0.33386719 3.15576172 0.50585938 C38.18339926 6.22599915 72.7006711 17.42158576 105 32 C106.18190918 32.527146 106.18190918 32.527146 107.38769531 33.06494141 C138.95236686 47.21303114 168.29400375 66.18101636 194.42578125 88.8203125 C196.99084462 91.07647798 196.99084462 91.07647798 200 93 C200 93.66 200 94.32 200 95 C200.56823486 95.24371338 201.13646973 95.48742676 201.72192383 95.73852539 C204.42081501 97.23302445 206.26424299 99.00510641 208.44921875 101.18359375 C209.29323242 102.02365967 210.13724609 102.86372559 211.00683594 103.72924805 C212.33376465 105.06983276 212.33376465 105.06983276 213.6875 106.4375 C214.59145508 107.34604736 215.49541016 108.25459473 216.42675781 109.19067383 C221.66281552 114.49837386 226.64182226 119.82746188 231.21484375 125.71875 C232.98618585 127.9823469 234.86302737 130.0765559 236.8125 132.1875 C276.75062805 176.80092479 300.73392841 236.73447533 311 295 C311.15307617 295.85384277 311.30615234 296.70768555 311.46386719 297.58740234 C314.24890755 313.32444503 316.20478963 329.03114075 315.82885742 345.03027344 C315.52290753 358.73455527 317.18949867 370.90901386 320.4921875 384.19921875 C323.85186878 398.38104114 324.37740366 412.61449851 324.3125 427.125 C324.30976578 428.40375504 324.30976578 428.40375504 324.30697632 429.70834351 C324.25802048 443.36064363 323.42070102 456.54551777 321 470 C320.66726068 472.04806217 320.33526078 474.09624458 320.00390625 476.14453125 C311.23229098 527.88212757 287.72568744 577.49301346 251.37988281 615.5390625 C249.26789203 617.77511219 247.23037362 620.07590155 245.1875 622.375 C230.90410039 638.27684237 214.07565967 651.65229885 196 663 C195.36964844 663.39896484 194.73929688 663.79792969 194.08984375 664.20898438 C175.36908154 675.95200795 155.18239849 685.64772834 134 692 C133.11699219 692.26506348 132.23398437 692.53012695 131.32421875 692.80322266 C109.75357859 699.13025448 88.31423472 702.96441184 65.78076172 701.58935547 C58.38474658 701.30749355 54.43303327 702.12973553 48.90258789 707.1574707 C48.27473389 707.76550537 47.64687988 708.37354004 47 709 C38.00205596 716.05213864 28.82112097 722.75936293 19.44287109 729.29589844 C16.83996555 731.11163706 14.24219394 732.93458234 11.64453125 734.7578125 C0.6392942 742.46471583 -10.44547281 750.03358823 -21.66821289 757.42089844 C-27.41848622 761.21951853 -33.02889887 765.16323594 -38.58447266 769.24121094 C-41.27666892 771.20144764 -44.02129988 773.0588368 -46.8125 774.875 C-50.60954627 777.37704336 -54.33722673 779.94266322 -58.01489258 782.61474609 C-79.02814636 797.87722196 -98.46419622 810.34508823 -125.375 806.4296875 C-135.22135544 804.78484702 -145.30298671 803.04267484 -152 795 C-158.92573065 783.48831257 -160.39472061 772.29303811 -158.609375 759.1171875 C-155.77617761 747.82072099 -147.12858389 738.7093511 -137.44140625 732.68359375 C-136.15326032 731.92662822 -134.85999036 731.17833434 -133.5625 730.4375 C-132.48427979 729.81077393 -132.48427979 729.81077393 -131.38427734 729.17138672 C-126.04601568 726.09709494 -120.63102034 723.17471902 -115.19921875 720.26977539 C-78.7920503 701.40575005 -78.7920503 701.40575005 -50 673 C-50.86238281 672.58621094 -50.86238281 672.58621094 -51.7421875 672.1640625 C-59.51829754 668.15492618 -66.26026068 662.51230335 -73 657 C-73.92296875 656.30132813 -74.8459375 655.60265625 -75.796875 654.8828125 C-76.52390625 654.26148438 -77.2509375 653.64015625 -78 653 C-78 652.34 -78 651.68 -78 651 C-78.84498047 650.65388672 -78.84498047 650.65388672 -79.70703125 650.30078125 C-91.30845478 643.71939448 -100.84412328 626.7611967 -106 615 C-106.52787109 613.80890625 -106.52787109 613.80890625 -107.06640625 612.59375 C-110.66923204 602.58422563 -110.49549028 589.68129929 -106 580 C-101.90049829 573.14331131 -96.66722473 567.64193227 -89 565 C-78.80195118 563.03143615 -69.03436642 564.07630716 -60.1875 569.75 C-50.65790559 576.98200611 -42.19773943 586.18698612 -34.48046875 595.29296875 C-30.69601359 599.65657535 -26.67681572 603.60701605 -22 607 C-21.93957691 603.72925151 -21.90563286 600.45865218 -21.875 597.1875 C-21.85824219 596.29740234 -21.84148437 595.40730469 -21.82421875 594.49023438 C-21.70173733 576.79166866 -24.89220535 559.16213049 -27.51391602 541.71508789 C-28.06931507 538.01712385 -28.61810294 534.3182206 -29.16601562 530.61914062 C-29.51784943 528.25775589 -29.87004911 525.89642563 -30.22265625 523.53515625 C-30.38621109 522.43422134 -30.54976593 521.33328644 -30.71827698 520.19898987 C-30.87191208 519.17949753 -31.02554718 518.16000519 -31.18383789 517.10961914 C-31.31770401 516.21650528 -31.45157013 515.32339142 -31.5894928 514.4032135 C-31.9605696 512.23083559 -32.43145798 510.12815372 -33 508 C-33.53367187 508.64066406 -34.06734375 509.28132812 -34.6171875 509.94140625 C-47.82917238 525.27919492 -66.0010971 532.42013489 -84.39086914 539.81350708 C-87.80815851 541.18776958 -91.2192791 542.5770497 -94.63079834 543.96556091 C-96.34199898 544.66198472 -98.05346293 545.35776191 -99.76519775 546.0528717 C-114.74735766 552.13988865 -129.68073573 558.33428507 -144.2890625 565.27734375 C-151.41562645 568.62632227 -158.7047577 571.6230512 -165.95117188 574.70068359 C-169.23664431 576.1008505 -172.51714563 577.51221605 -175.796875 578.92578125 C-182.85719607 581.96795043 -189.92551061 584.99093188 -197 588 C-198.01868164 588.4340918 -199.03736328 588.86818359 -200.08691406 589.31542969 C-217.68869143 596.78338538 -235.04794658 603.07296064 -254 606 C-255.1653125 606.18433594 -256.330625 606.36867188 -257.53125 606.55859375 C-271.10533973 608.28592724 -284.41920688 606.72052874 -296 599 C-302.61798535 593.12496638 -307.3824125 586.53898785 -308.375 577.63671875 C-308.73793428 567.07759966 -306.63863883 560.82291688 -299.8125 552.875 C-291.71736164 544.38689376 -283.00352617 539.18014642 -272.50390625 534.19238281 C-269.7458226 532.87895842 -266.9977285 531.54588465 -264.25 530.2109375 C-252.71304446 524.62122448 -241.11195238 519.19280438 -229.44140625 513.88818359 C-221.19093965 510.12376996 -213.06746735 506.14050898 -205 502 C-206.66675781 501.83564453 -206.66675781 501.83564453 -208.3671875 501.66796875 C-221.01885577 500.35397192 -232.25657056 499.02107174 -242 490 C-245.51236091 485.34829887 -247.91570628 480.42302347 -250 475 C-250.7528125 475.25394531 -251.505625 475.50789063 -252.28125 475.76953125 C-280.26265704 484.83632212 -309.79350859 486.33057894 -337.3203125 474.85546875 C-340.27249405 473.91300846 -341.21743415 473.72329331 -344 475 C-345.9613434 476.41939325 -347.87185443 477.90971915 -349.75 479.4375 C-356.56083553 484.84844506 -363.76896633 489.41966708 -371.20947266 493.90869141 C-372.78295505 494.86771326 -374.33660499 495.85911687 -375.88671875 496.85546875 C-382.48789185 501.05244694 -389.35509577 504.49010526 -397.375 504 C-401.7199321 502.80139804 -402.5321327 501.67425921 -405 498 C-408.46955949 488.69676219 -408.4701887 478.85491527 -408.375 469.0625 C-408.37466766 468.33465302 -408.37433533 467.60680603 -408.37399292 466.85690308 C-408.36965826 458.67762754 -408.08240867 450.6210451 -407.07421875 442.5 C-406.99266541 441.8248082 -406.91111206 441.14961639 -406.8270874 440.45396423 C-406.43183443 437.2583716 -405.98275784 434.08471738 -405.45263672 430.90844727 C-404.17312372 421.66614608 -406.4955006 417.28752547 -412 410 C-420.48607457 395.27398282 -425.44278189 378.4903592 -427.125 361.625 C-427.20991699 360.80153076 -427.29483398 359.97806152 -427.38232422 359.12963867 C-427.97351223 353.07561178 -428.2460849 347.08376563 -428 341 C-428.75925781 340.78730469 -429.51851562 340.57460938 -430.30078125 340.35546875 C-435.500812 338.45007206 -440.29226499 335.88970535 -445.1875 333.3125 C-446.21673584 332.77230225 -447.24597168 332.23210449 -448.30639648 331.67553711 C-455.08815316 328.08525865 -461.73977474 324.45602107 -468 320 C-468.59425781 319.5875 -469.18851563 319.175 -469.80078125 318.75 C-474.75367811 315.01381974 -478.05532014 309.83403959 -480 304 C-480.78931514 297.43962661 -479.88127706 292.38177076 -476 287 C-464.80367969 274.04659293 -441.72678999 256.60873689 -423.78515625 254.7734375 C-421.6329932 254.07101132 -421.6329932 254.07101132 -420.54296875 251.0078125 C-420.08025221 249.71739616 -419.6291193 248.42278786 -419.1875 247.125 C-413.54672712 232.02459026 -403.47314381 219.79360807 -390.9140625 209.7578125 C-383.69569267 203.12869735 -381.11639589 196.60611225 -378.30441284 187.45440674 C-377.15333997 183.71966309 -375.93994312 180.00522253 -374.73046875 176.2890625 C-374.49463577 175.56105438 -374.2588028 174.83304626 -374.01582336 174.08297729 C-359.25802406 128.82133823 -328.32041431 84.46954065 -290 56 C-289.37367676 55.52433594 -288.74735352 55.04867187 -288.10205078 54.55859375 C-241.23693983 19.04712033 -184.97454627 1.11573972 -127 -5 C-125.46134277 -5.17354004 -125.46134277 -5.17354004 -123.89160156 -5.35058594 C-82.70663503 -9.90267965 -40.75546531 -6.74454819 0 0 Z M216 534 C215.43796875 534.58265625 214.8759375 535.1653125 214.296875 535.765625 C198.20940281 551.4583126 176.68925366 560.77964761 156.16796875 569.265625 C155.48472031 569.54882095 154.80147186 569.83201691 154.09751892 570.12379456 C150.71277777 571.52414343 147.32334597 572.91019107 143.92260742 574.27124023 C126.38717042 581.37467105 112.82197192 590.97709029 105.21728516 608.83837891 C102.04142111 616.68175191 102.04142111 616.68175191 101 625 C131.23448975 618.49979853 159.15182528 605.11059222 181.4375 583.50683594 C183.08740632 581.91570753 184.76205594 580.3532466 186.4375 578.7890625 C197.65779892 568.1413538 206.4345127 556.14613193 213.8125 542.5625 C214.15651855 541.92965088 214.50053711 541.29680176 214.85498047 540.64477539 C215.6392651 539.1304319 216.32975698 537.56815588 217 536 C216.505 535.01 216.505 535.01 216 534 Z " fill="#FBFBFB" transform="translate(592,119)"/>
<path d="M0 0 C1.04140137 0.16693359 2.08280273 0.33386719 3.15576172 0.50585938 C38.18339926 6.22599915 72.7006711 17.42158576 105 32 C106.18190918 32.527146 106.18190918 32.527146 107.38769531 33.06494141 C138.95236686 47.21303114 168.29400375 66.18101636 194.42578125 88.8203125 C196.99084462 91.07647798 196.99084462 91.07647798 200 93 C200 93.66 200 94.32 200 95 C200.56823486 95.24371338 201.13646973 95.48742676 201.72192383 95.73852539 C204.42081501 97.23302445 206.26424299 99.00510641 208.44921875 101.18359375 C209.29323242 102.02365967 210.13724609 102.86372559 211.00683594 103.72924805 C212.33376465 105.06983276 212.33376465 105.06983276 213.6875 106.4375 C214.59145508 107.34604736 215.49541016 108.25459473 216.42675781 109.19067383 C221.66281552 114.49837386 226.64182226 119.82746188 231.21484375 125.71875 C232.98618585 127.9823469 234.86302737 130.0765559 236.8125 132.1875 C276.75062805 176.80092479 300.73392841 236.73447533 311 295 C311.15307617 295.85384277 311.30615234 296.70768555 311.46386719 297.58740234 C314.24890755 313.32444503 316.20478963 329.03114075 315.82885742 345.03027344 C315.52290753 358.73455527 317.18949867 370.90901386 320.4921875 384.19921875 C323.85186878 398.38104114 324.37740366 412.61449851 324.3125 427.125 C324.30976578 428.40375504 324.30976578 428.40375504 324.30697632 429.70834351 C324.25802048 443.36064363 323.42070102 456.54551777 321 470 C320.66726068 472.04806217 320.33526078 474.09624458 320.00390625 476.14453125 C311.23229098 527.88212757 287.72568744 577.49301346 251.37988281 615.5390625 C249.26789203 617.77511219 247.23037362 620.07590155 245.1875 622.375 C230.90410039 638.27684237 214.07565967 651.65229885 196 663 C195.36964844 663.39896484 194.73929688 663.79792969 194.08984375 664.20898438 C175.36908154 675.95200795 155.18239849 685.64772834 134 692 C133.11699219 692.26506348 132.23398437 692.53012695 131.32421875 692.80322266 C109.75357859 699.13025448 88.31423472 702.96441184 65.78076172 701.58935547 C58.38474658 701.30749355 54.43303327 702.12973553 48.90258789 707.1574707 C48.27473389 707.76550537 47.64687988 708.37354004 47 709 C38.00205596 716.05213864 28.82112097 722.75936293 19.44287109 729.29589844 C16.83996555 731.11163706 14.24219394 732.93458234 11.64453125 734.7578125 C0.6392942 742.46471583 -10.44547281 750.03358823 -21.66821289 757.42089844 C-27.41848622 761.21951853 -33.02889887 765.16323594 -38.58447266 769.24121094 C-41.27666892 771.20144764 -44.02129988 773.0588368 -46.8125 774.875 C-50.60954627 777.37704336 -54.33722673 779.94266322 -58.01489258 782.61474609 C-79.02814636 797.87722196 -98.46419622 810.34508823 -125.375 806.4296875 C-135.22135544 804.78484702 -145.30298671 803.04267484 -152 795 C-158.92573065 783.48831257 -160.39472061 772.29303811 -158.609375 759.1171875 C-155.77617761 747.82072099 -147.12858389 738.7093511 -137.44140625 732.68359375 C-136.15326032 731.92662822 -134.85999036 731.17833434 -133.5625 730.4375 C-132.48427979 729.81077393 -132.48427979 729.81077393 -131.38427734 729.17138672 C-126.04601568 726.09709494 -120.63102034 723.17471902 -115.19921875 720.26977539 C-78.7920503 701.40575005 -78.7920503 701.40575005 -50 673 C-50.86238281 672.58621094 -50.86238281 672.58621094 -51.7421875 672.1640625 C-59.51829754 668.15492618 -66.26026068 662.51230335 -73 657 C-73.92296875 656.30132813 -74.8459375 655.60265625 -75.796875 654.8828125 C-76.52390625 654.26148438 -77.2509375 653.64015625 -78 653 C-78 652.34 -78 651.68 -78 651 C-78.84498047 650.65388672 -78.84498047 650.65388672 -79.70703125 650.30078125 C-91.30845478 643.71939448 -100.84412328 626.7611967 -106 615 C-106.52787109 613.80890625 -106.52787109 613.80890625 -107.06640625 612.59375 C-110.66923204 602.58422563 -110.49549028 589.68129929 -106 580 C-101.90049829 573.14331131 -96.66722473 567.64193227 -89 565 C-78.80195118 563.03143615 -69.03436642 564.07630716 -60.1875 569.75 C-50.65790559 576.98200611 -42.19773943 586.18698612 -34.48046875 595.29296875 C-30.69601359 599.65657535 -26.67681572 603.60701605 -22 607 C-21.93957691 603.72925151 -21.90563286 600.45865218 -21.875 597.1875 C-21.85824219 596.29740234 -21.84148437 595.40730469 -21.82421875 594.49023438 C-21.70173733 576.79166866 -24.89220535 559.16213049 -27.51391602 541.71508789 C-28.06931507 538.01712385 -28.61810294 534.3182206 -29.16601562 530.61914062 C-29.51784943 528.25775589 -29.87004911 525.89642563 -30.22265625 523.53515625 C-30.38621109 522.43422134 -30.54976593 521.33328644 -30.71827698 520.19898987 C-30.87191208 519.17949753 -31.02554718 518.16000519 -31.18383789 517.10961914 C-31.31770401 516.21650528 -31.45157013 515.32339142 -31.5894928 514.4032135 C-31.9605696 512.23083559 -32.43145798 510.12815372 -33 508 C-33.53367187 508.64066406 -34.06734375 509.28132812 -34.6171875 509.94140625 C-47.82917238 525.27919492 -66.0010971 532.42013489 -84.39086914 539.81350708 C-87.80815851 541.18776958 -91.2192791 542.5770497 -94.63079834 543.96556091 C-96.34199898 544.66198472 -98.05346293 545.35776191 -99.76519775 546.0528717 C-114.74735766 552.13988865 -129.68073573 558.33428507 -144.2890625 565.27734375 C-151.41562645 568.62632227 -158.7047577 571.6230512 -165.95117188 574.70068359 C-169.23664431 576.1008505 -172.51714563 577.51221605 -175.796875 578.92578125 C-182.85719607 581.96795043 -189.92551061 584.99093188 -197 588 C-198.01868164 588.4340918 -199.03736328 588.86818359 -200.08691406 589.31542969 C-217.68869143 596.78338538 -235.04794658 603.07296064 -254 606 C-255.1653125 606.18433594 -256.330625 606.36867188 -257.53125 606.55859375 C-271.10533973 608.28592724 -284.41920688 606.72052874 -296 599 C-302.61798535 593.12496638 -307.3824125 586.53898785 -308.375 577.63671875 C-308.73793428 567.07759966 -306.63863883 560.82291688 -299.8125 552.875 C-291.71736164 544.38689376 -283.00352617 539.18014642 -272.50390625 534.19238281 C-269.7458226 532.87895842 -266.9977285 531.54588465 -264.25 530.2109375 C-252.71304446 524.62122448 -241.11195238 519.19280438 -229.44140625 513.88818359 C-221.19093965 510.12376996 -213.06746735 506.14050898 -205 502 C-206.66675781 501.83564453 -206.66675781 501.83564453 -208.3671875 501.66796875 C-221.01885577 500.35397192 -232.25657056 499.02107174 -242 490 C-245.51236091 485.34829887 -247.91570628 480.42302347 -250 475 C-250.7528125 475.25394531 -251.505625 475.50789063 -252.28125 475.76953125 C-280.26265704 484.83632212 -309.79350859 486.33057894 -337.3203125 474.85546875 C-340.27249405 473.91300846 -341.21743415 473.72329331 -344 475 C-345.9613434 476.41939325 -347.87185443 477.90971915 -349.75 479.4375 C-356.56083553 484.84844506 -363.76896633 489.41966708 -371.20947266 493.90869141 C-372.78295505 494.86771326 -374.33660499 495.85911687 -375.88671875 496.85546875 C-382.48789185 501.05244694 -389.35509577 504.49010526 -397.375 504 C-401.7199321 502.80139804 -402.5321327 501.67425921 -405 498 C-408.46955949 488.69676219 -408.4701887 478.85491527 -408.375 469.0625 C-408.37466766 468.33465302 -408.37433533 467.60680603 -408.37399292 466.85690308 C-408.36965826 458.67762754 -408.08240867 450.6210451 -407.07421875 442.5 C-406.99266541 441.8248082 -406.91111206 441.14961639 -406.8270874 440.45396423 C-406.43183443 437.2583716 -405.98275784 434.08471738 -405.45263672 430.90844727 C-404.17312372 421.66614608 -406.4955006 417.28752547 -412 410 C-420.48607457 395.27398282 -425.44278189 378.4903592 -427.125 361.625 C-427.20991699 360.80153076 -427.29483398 359.97806152 -427.38232422 359.12963867 C-427.97351223 353.07561178 -428.2460849 347.08376563 -428 341 C-428.75925781 340.78730469 -429.51851562 340.57460938 -430.30078125 340.35546875 C-435.500812 338.45007206 -440.29226499 335.88970535 -445.1875 333.3125 C-446.21673584 332.77230225 -447.24597168 332.23210449 -448.30639648 331.67553711 C-455.08815316 328.08525865 -461.73977474 324.45602107 -468 320 C-468.59425781 319.5875 -469.18851563 319.175 -469.80078125 318.75 C-474.75367811 315.01381974 -478.05532014 309.83403959 -480 304 C-480.78931514 297.43962661 -479.88127706 292.38177076 -476 287 C-464.80367969 274.04659293 -441.72678999 256.60873689 -423.78515625 254.7734375 C-421.6329932 254.07101132 -421.6329932 254.07101132 -420.54296875 251.0078125 C-420.08025221 249.71739616 -419.6291193 248.42278786 -419.1875 247.125 C-413.54672712 232.02459026 -403.47314381 219.79360807 -390.9140625 209.7578125 C-383.69569267 203.12869735 -381.11639589 196.60611225 -378.30441284 187.45440674 C-377.15333997 183.71966309 -375.93994312 180.00522253 -374.73046875 176.2890625 C-374.49463577 175.56105438 -374.2588028 174.83304626 -374.01582336 174.08297729 C-359.25802406 128.82133823 -328.32041431 84.46954065 -290 56 C-289.37367676 55.52433594 -288.74735352 55.04867187 -288.10205078 54.55859375 C-241.23693983 19.04712033 -184.97454627 1.11573972 -127 -5 C-125.46134277 -5.17354004 -125.46134277 -5.17354004 -123.89160156 -5.35058594 C-82.70663503 -9.90267965 -40.75546531 -6.74454819 0 0 Z M-142.5625 3.75 C-143.63346924 3.91846436 -144.70443848 4.08692871 -145.80786133 4.26049805 C-174.68891341 8.95515896 -202.20772598 16.18829832 -229 28 C-229.82483887 28.36351562 -230.64967773 28.72703125 -231.49951172 29.1015625 C-247.91312937 36.42430787 -263.7702796 44.96339457 -278 56 C-279.0209375 56.75667969 -280.041875 57.51335937 -281.09375 58.29296875 C-289.23216566 64.35281546 -296.69730033 70.96341566 -304 78 C-304.61166016 78.58442871 -305.22332031 79.16885742 -305.85351562 79.77099609 C-314.18877945 87.76782607 -321.81967966 95.97405016 -328.69824219 105.25830078 C-329.99532734 106.99374817 -331.32532522 108.69889576 -332.6640625 110.40234375 C-341.02647468 121.20259631 -347.58746677 132.96642572 -354 145 C-354.4419873 145.81581543 -354.88397461 146.63163086 -355.33935547 147.47216797 C-360.1645245 156.48756578 -363.97693185 165.68101343 -367.19140625 175.37890625 C-367.47011566 176.21625809 -367.74882507 177.05360992 -368.03598022 177.91633606 C-369.43043182 182.12849438 -370.78873541 186.34801856 -372.09570312 190.58813477 C-376.44056773 204.29999587 -382.90449458 212.73846242 -394 222 C-398.99113169 226.2584885 -402.66211966 231.15316887 -406.3125 236.5625 C-406.74546387 237.19994141 -407.17842773 237.83738281 -407.62451172 238.49414062 C-410.07269761 242.21901155 -411.79023732 245.66223217 -413 250 C-412.25234375 249.79503906 -411.5046875 249.59007812 -410.734375 249.37890625 C-409.74953125 249.10949219 -408.7646875 248.84007812 -407.75 248.5625 C-406.77546875 248.29566406 -405.8009375 248.02882813 -404.796875 247.75390625 C-403.87390625 247.50511719 -402.9509375 247.25632812 -402 247 C-401.29746094 246.80535156 -400.59492188 246.61070312 -399.87109375 246.41015625 C-396.90365097 245.75967297 -394.02131147 245.88598825 -391 246 C-390 247 -390 247 -389.9375 249.5625 C-389.958125 250.366875 -389.97875 251.17125 -390 252 C-390.96486328 252.27094482 -390.96486328 252.27094482 -391.94921875 252.54736328 C-436.33036348 264.56357714 -436.33036348 264.56357714 -470.9375 293.05859375 C-472.6120366 296.11831687 -473.06430809 298.52736311 -473 302 C-470.23925326 311.2682212 -459.82928685 317.13559312 -451.8125 321.5625 C-450.93537354 322.05717773 -450.05824707 322.55185547 -449.15454102 323.06152344 C-443.63475896 326.12759616 -438.03645303 329.01556664 -432.3828125 331.82421875 C-431.7265538 332.15027603 -431.0702951 332.47633331 -430.39414978 332.81227112 C-427.15660039 334.41607676 -423.91272477 336.00495286 -420.6574707 337.57250977 C-396.49717743 349.30251446 -396.49717743 349.30251446 -391 359 C-390.828125 361.73828125 -390.828125 361.73828125 -391 364 C-393.1796875 364.8125 -393.1796875 364.8125 -396 365 C-398.5078125 362.9375 -398.5078125 362.9375 -401.125 360 C-406.10976876 354.64017202 -411.37876787 350.27706252 -418 347 C-418.99 347 -419.98 347 -421 347 C-420.11886182 376.47407222 -410.28849817 406.71150183 -389.03125 427.96875 C-388.4846875 428.4740625 -387.938125 428.979375 -387.375 429.5 C-385 432 -385 432 -384.625 434.875 C-384.74875 435.57625 -384.8725 436.2775 -385 437 C-388.125 437.4375 -388.125 437.4375 -392 437 C-393.89912427 435.32356065 -395.32814219 433.56314529 -396.8359375 431.53125 C-397.41214844 430.77328125 -397.41214844 430.77328125 -398 430 C-398.33 430 -398.66 430 -399 430 C-400.54338643 443.00854274 -401.21719423 455.91049858 -401.25 469 C-401.25499512 469.7007666 -401.25999023 470.4015332 -401.26513672 471.12353516 C-401.27697927 473.14482209 -401.27157587 475.16618714 -401.265625 477.1875 C-401.26224121 478.94126953 -401.26224121 478.94126953 -401.25878906 480.73046875 C-400.99121307 484.11101373 -400.2062447 486.84244187 -399 490 C-396.72641093 487.07292425 -394.78904492 484.04658168 -392.875 480.875 C-389.15459143 474.98827758 -384.80917416 470.01491423 -380 465 C-379.39027344 464.33871094 -378.78054688 463.67742187 -378.15234375 462.99609375 C-374.42062395 459.06036193 -370.21343369 454.78746298 -365 453 C-359.54461361 453.23608105 -356.03418179 454.83831707 -351.4375 457.6875 C-324.3936472 473.85281051 -295.88125036 477.06205874 -265.5703125 470.2265625 C-239.28993378 462.9376025 -213.81425643 445.37784374 -199.375 422 C-197.60647342 419.04267156 -197.60647342 419.04267156 -199 416 C-204.09363654 417.18885682 -207.92530216 418.4128205 -210.94140625 422.8671875 C-212.05414015 425.02036632 -213.1610241 427.17657949 -214.26171875 429.3359375 C-216.18038285 432.27645192 -217.07942585 432.96194057 -220.4375 433.75 C-221.613125 433.8325 -222.78875 433.915 -224 434 C-224.3125 431.375 -224.3125 431.375 -224 428 C-222.33752986 425.99651034 -220.67067133 423.99665598 -219 422 C-217.58650231 418.60581779 -217.58650231 418.60581779 -218 415 C-219.39196356 412.99219802 -220.88594584 411.36170546 -222.65234375 409.67578125 C-224 408 -224 408 -224 404 C-221.4375 403.625 -221.4375 403.625 -218 404 C-216.25390625 405.3359375 -216.25390625 405.3359375 -214.5 407 C-212.09812572 409.22239356 -211.22512002 409.94946285 -207.9375 410.6875 C-204.00147428 409.76630249 -201.54920571 408.04551125 -199 405 C-194.50138251 397.05244244 -194.77623462 386.60028223 -196.69140625 377.8359375 C-200.21551413 367.36683041 -205.44135274 360.48216534 -215 355 C-216.010625 354.38125 -217.02125 353.7625 -218.0625 353.125 C-218.701875 352.75375 -219.34125 352.3825 -220 352 C-219.67 350.35 -219.34 348.7 -219 347 C-211.44398131 347.32852255 -205.40091383 350.672728 -200.015625 355.94140625 C-191.62278398 366.02395642 -188.11753739 377.14832 -187 390 C-184.60383408 387.60383408 -184.28663841 386.0042896 -183.4375 382.75 C-183.06431641 381.35007812 -183.06431641 381.35007812 -182.68359375 379.921875 C-179.62911155 366.86614535 -178.89415254 352.80850077 -186 341 C-190.28618548 334.58497739 -195.41990325 329.44308798 -201.3125 324.49609375 C-208.89865945 317.45022763 -214.23803205 309.7638127 -219.375 300.8125 C-227.20195915 287.49268232 -235.27444112 275.20802347 -246 264 C-246.74507812 263.18015625 -247.49015625 262.3603125 -248.2578125 261.515625 C-263.12288257 245.71842182 -282.7993296 237.75520811 -303 231 C-303 229.02 -303 227.04 -303 225 C-296.09223918 225.50238261 -290.31411441 226.98775843 -283.875 229.5 C-282.96065186 229.85384766 -282.04630371 230.20769531 -281.10424805 230.57226562 C-268.75896149 235.5108127 -258.06163333 242.2934688 -248 251 C-247.19304687 251.66257812 -246.38609375 252.32515625 -245.5546875 253.0078125 C-231.51135199 264.93804424 -221.70677643 281.13713795 -212.53930664 296.92211914 C-206.62959533 307.06147094 -199.89109083 315.77788229 -190.86328125 323.39453125 C-182.43887946 330.65329254 -174.30855612 342.66507466 -173 354 C-171.34449111 383.9901802 -183.07517428 416.62090125 -202.66796875 439.41796875 C-203.43753906 440.27003906 -204.20710938 441.12210938 -205 442 C-205.75925781 442.84175781 -206.51851563 443.68351562 -207.30078125 444.55078125 C-217.56951297 455.35731889 -229.99851666 462.92624463 -243 470 C-241.74074205 477.35878867 -239.09048831 483.98195283 -232.875 488.4375 C-220.20468951 495.74570196 -204.41206481 495.87731158 -190.4375 492.5 C-155.57949937 481.76868872 -125.3785435 455.01019173 -103.125 426.6875 C-101.16765108 424.21202931 -99.14015086 421.81338995 -97.07739258 419.42553711 C-71.85476952 390.15347131 -46.38177136 354.84944261 -48.75 314.52294922 C-50.59887377 295.86449067 -62.42863976 278.92299525 -72.31542969 263.62060547 C-77.9780389 254.81155514 -83.48119865 245.8995369 -89 237 C-89.37477478 236.39647705 -89.74954956 235.7929541 -90.13568115 235.17114258 C-92.50848513 231.34870965 -94.87185429 227.52067986 -97.22402954 223.68551636 C-97.98576408 222.44591786 -98.75003212 221.20787233 -99.51693726 219.97146606 C-100.58879793 218.24192548 -101.6500847 216.50584552 -102.7109375 214.76953125 C-103.62818604 213.27836792 -103.62818604 213.27836792 -104.56396484 211.75708008 C-105.95376581 209.08876619 -106.6858469 206.98247029 -107 204 C-106 203 -106 203 -103.63671875 202.69140625 C-101 203 -101 203 -99.33203125 204.58984375 C-98.83058594 205.36457031 -98.32914062 206.13929688 -97.8125 206.9375 C-96.92304687 208.30261719 -96.92304687 208.30261719 -96.015625 209.6953125 C-92.76441489 215.0257849 -89.59038976 220.39865664 -86.453125 225.796875 C-81.35687781 234.55678377 -75.92961469 243.11437439 -70.54956055 251.70141602 C-38.53662861 302.83006847 -38.53662861 302.83006847 -41 335 C-41.31391 336.33803939 -41.64624094 337.67193998 -42 339 C-43.12873123 347.74766703 -39.82469247 354.84157979 -35 362 C-30.63601424 367.23136181 -26.0554141 371.78879556 -20 375 C-19.34 375 -18.68 375 -18 375 C-17.68361572 374.29617188 -17.36723145 373.59234375 -17.04125977 372.8671875 C2.07820788 330.48552798 25.89770379 296.26060246 67.21606445 273.02319336 C68.76696849 272.13365746 70.2836331 271.18493787 71.79296875 270.2265625 C74.63856145 268.64511806 76.79837274 268.77663066 80 269 C80.33 270.65 80.66 272.3 81 274 C80.4016333 274.34144043 79.8032666 274.68288086 79.18676758 275.03466797 C62.5039963 284.59926458 47.9187285 294.73401187 34 308 C33.15824219 308.77730469 32.31648438 309.55460937 31.44921875 310.35546875 C-7.27078317 347.222839 -24.79235873 406.87709032 -26.21875 458.84765625 C-26.64020577 483.17831393 -23.98088448 507.00010505 -20.11328125 530.984375 C-18.87608178 538.68000335 -17.7530148 546.39094921 -16.64715576 554.10635376 C-16.42728497 555.63793047 -16.20617229 557.1693295 -15.98370361 558.70053101 C-14.09138264 571.72646862 -12.79710575 584.49666871 -12.75976562 597.67773438 C-12.75007781 599.73348771 -12.71894199 601.78823011 -12.6875 603.84375 C-12.46890017 630.84557285 -21.67941725 656.28368864 -40.60302734 675.56787109 C-41.93964038 676.93812136 -43.24604826 678.33764139 -44.55078125 679.73828125 C-64.67303062 700.8376353 -91.18651523 715.33353667 -116.59375 729.01953125 C-117.48400879 729.50156006 -118.37426758 729.98358887 -119.29150391 730.48022461 C-120.94567292 731.37327579 -122.60387214 732.25892622 -124.26708984 733.13500977 C-136.03080764 739.47134741 -147.03253556 748.25737383 -152 761 C-151.65314736 763.17763607 -151.65314736 763.17763607 -151 765 C-150.57589844 764.55269531 -150.15179688 764.10539063 -149.71484375 763.64453125 C-139.66288952 753.28328612 -139.66288952 753.28328612 -134.0625 752.6875 C-133.381875 752.790625 -132.70125 752.89375 -132 753 C-131.67578125 755.7265625 -131.67578125 755.7265625 -132 759 C-134.23046875 761.2734375 -134.23046875 761.2734375 -137.1875 763.375 C-142.89076617 767.78474188 -147.27218839 771.3684716 -148.4296875 778.734375 C-148.63595824 783.22379696 -148.30917985 786.31980433 -146.4375 790.4375 C-143.02642912 794.02349759 -139.81975776 796.69382665 -134.76953125 797.2421875 C-132.84467259 797.24900116 -130.92014855 797.13474727 -129 797 C-128.97421875 796.31035156 -128.9484375 795.62070312 -128.921875 794.91015625 C-128.29602967 784.54103711 -124.94198098 776.7750187 -118 769 C-115.29120665 767.64560332 -112.99066732 767.93498549 -110 768 C-109.5625 770.0625 -109.5625 770.0625 -110 773 C-111.41796875 774.609375 -111.41796875 774.609375 -113.25 776.3125 C-117.84174135 780.59688341 -120.57614079 784.91188287 -121.4375 791.1875 C-120.93221938 794.43573253 -119.95280828 796.37121962 -118 799 C-112.30630312 801.84684844 -104.187874 800.35591931 -98.3125 798.625 C-84.03198133 793.3186795 -71.3558423 783.72243223 -59 775 C-55.79320935 772.74779843 -52.58410126 770.4989076 -49.375 768.25 C-48.538479 767.66307373 -47.70195801 767.07614746 -46.84008789 766.47143555 C-35.09795262 758.24581647 -23.2233009 750.21269783 -11.3515625 742.17578125 C0.24659527 734.31337478 11.718503 726.31117881 23 718 C23.70914551 717.47776855 24.41829102 716.95553711 25.14892578 716.41748047 C33.61827978 710.16274155 41.94465727 703.78464078 50 697 C50.54366211 696.54657227 51.08732422 696.09314453 51.64746094 695.62597656 C72.74151727 678.01426305 86.11661868 661.42534181 91.5 634.0625 C95.0789277 615.87234068 100.70757949 595.04499531 116 583 C116.85335937 582.3090625 117.70671875 581.618125 118.5859375 580.90625 C128.19473813 573.69347421 138.91199871 569.45317664 150 565 C174.4207504 555.17285466 196.97889364 544.04547031 216.10546875 525.73046875 C218.40319745 523.56297568 220.72060983 521.58763607 223.1875 519.625 C233.87654407 510.28048978 240.43493953 496.31996455 247 484 C248.65 484.33 250.3 484.66 252 485 C251.51089464 490.84633745 249.80239066 495.06724143 247 500.1875 C246.40094849 501.29907471 246.40094849 501.29907471 245.78979492 502.43310547 C241.81513131 509.63217309 237.25479936 516.50074788 231.58496094 522.49633789 C226.95342947 527.49943434 224.39132565 533.00199584 221.625 539.1875 C217.68620022 547.69836002 213.6579865 555.48832628 208 563 C207.42894531 563.77859375 206.85789062 564.5571875 206.26953125 565.359375 C201.85892356 571.21327079 196.99842803 576.64513349 192 582 C191.27425781 582.79148437 190.54851563 583.58296875 189.80078125 584.3984375 C178.05812619 596.71925385 164.12090505 606.31497284 149 614 C147.90631104 614.56412598 147.90631104 614.56412598 146.79052734 615.13964844 C136.09509742 620.60767839 125.25398303 624.87165259 113.8046875 628.4921875 C113.00998047 628.74806641 112.21527344 629.00394531 111.39648438 629.26757812 C109.76548668 629.7660493 108.11914993 630.21631345 106.46289062 630.62304688 C104.13927816 631.24255284 102.11522346 631.85485189 100 633 C98.23547803 636.04116154 98.23547803 636.04116154 97.75 639.75 C97.46384923 641.10636457 97.17335395 642.46181861 96.87890625 643.81640625 C96.73855957 644.51008301 96.59821289 645.20375977 96.45361328 645.91845703 C92.37973368 664.61269678 82.37806342 680.3335923 67.65234375 692.44140625 C67.10707031 692.95574219 66.56179688 693.47007812 66 694 C66 694.66 66 695.32 66 696 C73.62724898 696.16761138 81.00003509 695.73292807 88.5625 694.75 C89.60172607 694.61722656 90.64095215 694.48445312 91.71166992 694.34765625 C100.95591934 693.10950473 109.95884983 691.26722804 119 689 C120.40958984 688.66548828 120.40958984 688.66548828 121.84765625 688.32421875 C174.44978097 675.07206059 223.92888917 641.90638543 257 599 C257.79664063 597.99710938 258.59328125 596.99421875 259.4140625 595.9609375 C283.71438979 565.20132881 300.88774503 529.11974204 310 491 C310.17869629 490.26136719 310.35739258 489.52273438 310.54150391 488.76171875 C315.85252396 466.23186314 317.27443624 443.44034996 317.3125 420.375 C317.31787781 419.04887192 317.31787781 419.04887192 317.32336426 417.69595337 C317.34394698 408.28778778 317.27338075 399.19502483 315 390 C312.90770085 393.13844873 312.5296521 394.81181669 311.96484375 398.47265625 C311.79533203 399.53677734 311.62582031 400.60089844 311.45117188 401.69726562 C311.28166016 402.80779297 311.11214844 403.91832031 310.9375 405.0625 C310.59527408 407.26216031 310.25035727 409.46140419 309.90234375 411.66015625 C309.67792603 413.12400757 309.67792603 413.12400757 309.44897461 414.61743164 C309 417 309 417 308 419 C306.35 418.67 304.7 418.34 303 418 C302.73804716 410.28412747 303.44861378 403.18792377 304.9375 395.625 C308.08783684 379.4169066 308.27553344 363.33678641 308.3125 346.875 C308.31642761 345.20375565 308.31642761 345.20375565 308.32043457 343.49874878 C308.32468374 326.62364242 307.48107726 310.55805906 304 294 C303.6820422 292.32736285 303.36683457 290.65420003 303.0546875 288.98046875 C302.15294302 284.29101494 301.10208011 279.64596828 300 275 C299.80212891 274.14615723 299.60425781 273.29231445 299.40039062 272.41259766 C287.41852915 221.34221734 262.73597949 169.12822954 226.44921875 130.625 C224.54565504 128.58481688 222.72417345 126.51977983 220.91015625 124.40234375 C216.56620277 119.41862846 211.92258039 114.73651532 207.24951172 110.06420898 C205.76106763 108.57358385 204.28082723 107.07512983 202.80078125 105.57617188 C196.52877019 99.26782036 189.98346864 93.5259642 183 88 C181.4568702 86.7309437 179.91498634 85.46036902 178.375 84.1875 C145.80219838 58.31334361 107.58574242 37.78257359 68 25 C66.46031168 24.48886047 64.92119663 23.97598898 63.3828125 23.4609375 C62.66512695 23.22213867 61.94744141 22.98333984 61.20800781 22.73730469 C59.67507112 22.2254218 58.14324373 21.71020964 56.61230469 21.19238281 C43.34228043 16.72056642 30.10262058 13.30773622 16.38769531 10.50683594 C13.48143144 9.88992348 10.61784432 9.14987716 7.75 8.375 C-4.65088031 5.21259786 -17.50289992 3.87186023 -30.1875 2.375 C-31.21891113 2.25189453 -32.25032227 2.12878906 -33.31298828 2.00195312 C-49.02383647 0.21320425 -64.61785613 -0.1864853 -80.41577148 -0.18530273 C-83.66468511 -0.18748468 -86.91325559 -0.20569927 -90.16210938 -0.22460938 C-107.80550867 -0.27265689 -125.12891413 0.99407946 -142.5625 3.75 Z M216 534 C215.43796875 534.58265625 214.8759375 535.1653125 214.296875 535.765625 C198.20940281 551.4583126 176.68925366 560.77964761 156.16796875 569.265625 C155.48472031 569.54882095 154.80147186 569.83201691 154.09751892 570.12379456 C150.71277777 571.52414343 147.32334597 572.91019107 143.92260742 574.27124023 C126.38717042 581.37467105 112.82197192 590.97709029 105.21728516 608.83837891 C102.04142111 616.68175191 102.04142111 616.68175191 101 625 C131.23448975 618.49979853 159.15182528 605.11059222 181.4375 583.50683594 C183.08740632 581.91570753 184.76205594 580.3532466 186.4375 578.7890625 C197.65779892 568.1413538 206.4345127 556.14613193 213.8125 542.5625 C214.15651855 541.92965088 214.50053711 541.29680176 214.85498047 540.64477539 C215.6392651 539.1304319 216.32975698 537.56815588 217 536 C216.505 535.01 216.505 535.01 216 534 Z " fill="#070808" transform="translate(592,119)"/>
<path d="M0 0 C1.60660919 2.0919896 3.12283831 4.19090992 4.55078125 6.41015625 C10.09352039 14.75498968 16.96225783 20.16360575 25 26 C23.89884277 31.75183783 22.67450136 37.44747793 21.24902344 43.12744141 C19.05577548 51.90558169 17.23866198 60.70000407 15.75 69.625 C15.50564209 71.080271 15.50564209 71.080271 15.25634766 72.56494141 C13.44003318 83.82763529 12.83769429 94.84489971 12.875 106.25 C12.87258301 107.53181152 12.87016602 108.81362305 12.86767578 110.13427734 C12.88020659 116.70794195 13.1213787 123.09810121 13.875 129.625 C14.53952559 138.16464974 11.1100302 143.19063943 5.86328125 149.6171875 C-9.77020519 166.62021903 -35.68277632 173.65663777 -56.44750977 182.21069336 C-83.75177511 193.471067 -110.79540134 205.36145584 -137.87695312 217.14379883 C-138.98615616 217.62600388 -140.09535919 218.10820892 -141.23817444 218.60502625 C-143.31031456 219.50588388 -145.38214906 220.40744498 -147.45359802 221.30989075 C-149.34245939 222.13080828 -151.23319655 222.9474257 -153.12594604 223.75933838 C-155.17234192 224.64271944 -157.2111055 225.54387139 -159.24441528 226.45697021 C-160.30917084 226.92475891 -161.37392639 227.39254761 -162.47094727 227.87451172 C-163.43420425 228.30512909 -164.39746124 228.73574646 -165.38990784 229.17941284 C-168.14288411 230.04492135 -169.3458223 230.01525816 -172 229 C-172.16435547 227.31970703 -172.16435547 227.31970703 -172.33203125 225.60546875 C-172.49149893 224.13273778 -172.65169317 222.66008535 -172.8125 221.1875 C-172.91788086 220.08051758 -172.91788086 220.08051758 -173.02539062 218.95117188 C-173.4949548 214.76411551 -173.4949548 214.76411551 -175.3203125 211.03515625 C-178.08153363 209.33347346 -180.25806813 209.22379701 -183.4609375 209.328125 C-188.82154769 210.74662493 -192.34652627 215.03690986 -196 219 C-196.63679688 219.680625 -197.27359375 220.36125 -197.9296875 221.0625 C-201.41043615 225.19276634 -202.73107249 228.64699914 -203.1875 234.01953125 C-203.12727407 236.32238036 -203.12727407 236.32238036 -201 239 C-208.47042483 241.73308225 -215.57859551 242.14482535 -223.4375 242.0625 C-224.26443359 242.05798828 -225.09136719 242.05347656 -225.94335938 242.04882812 C-227.96227146 242.03715811 -229.98114574 242.01922718 -232 242 C-232 241.34 -232 240.68 -232 240 C-228.04 239.01 -228.04 239.01 -224 238 C-222.60229416 234.25308553 -222.60229416 234.25308553 -224 232 C-225.79244141 232.08701172 -225.79244141 232.08701172 -227.62109375 232.17578125 C-242.90382195 232.69756785 -242.90382195 232.69756785 -249.37109375 228.58203125 C-252.25043324 225.78555045 -253.80279892 223.17663313 -254.46875 219.203125 C-254.56704846 209.91392096 -252.1291929 204.17172529 -245.875 197.375 C-238.11321662 190.22893501 -228.45681439 185.49361671 -219.0625 180.875 C-217.93408691 180.31498291 -216.80567383 179.75496582 -215.64306641 179.17797852 C-206.6639283 174.75037729 -197.5876679 170.5513325 -188.48461914 166.38623047 C-175.78913369 160.52892182 -163.32224748 154.21612745 -150.85498047 147.89038086 C-143.16037969 143.99720848 -135.50319821 140.22642248 -127.49511719 137.00732422 C-115.63583136 132.2195147 -105.05035347 125.88677148 -95 118 C-94.22430664 117.4009082 -93.44861328 116.80181641 -92.64941406 116.18457031 C-85.01125908 110.13195799 -78.13558772 103.44242564 -71.27441406 96.53515625 C-69.37784061 94.62785668 -67.47079695 92.73149941 -65.5625 90.8359375 C-58.58086503 83.86230067 -52.09744289 76.76812646 -46 69 C-44.91580537 67.68260831 -43.8276383 66.3684694 -42.734375 65.05859375 C-25.99889687 44.81880709 -12.02514614 23.34293074 0 0 Z " fill="#FBFBFB" transform="translate(545,477)"/>
<path d="M0 0 C11.78910839 5.5496193 19.72961291 14.98497714 27.94921875 24.7421875 C34.11660234 32.04951403 40.83377575 37.50606026 48.69140625 42.9765625 C45.84954458 62.99684169 38.37840577 80.2688488 25.69140625 95.9765625 C0.55091866 84.08659072 -20.26484666 61.05394918 -31.30859375 35.9765625 C-33.52010817 28.0151106 -33.75146964 17.97647999 -30.24609375 10.4140625 C-23.52355861 -1.11028345 -12.41044693 -3.83888677 0 0 Z " fill="#FAFAFA" transform="translate(522.30859375,692.0234375)"/>
<path d="M0 0 C1.3295874 -0.01401855 1.3295874 -0.01401855 2.68603516 -0.02832031 C3.51538574 -0.02413086 4.34473633 -0.01994141 5.19921875 -0.015625 C5.94389404 -0.01336914 6.68856934 -0.01111328 7.45581055 -0.00878906 C9.3125 0.25 9.3125 0.25 11.3125 2.25 C11.5625 4.75 11.5625 4.75 11.3125 7.25 C8.82856133 9.73393867 8.03940071 9.50935032 4.61328125 9.55859375 C3.18193848 9.59255249 3.18193848 9.59255249 1.72167969 9.62719727 C0.69977539 9.64709717 -0.32212891 9.66699707 -1.375 9.6875 C-19.54068586 10.31269723 -40.71904518 13.33705085 -54.41015625 26.609375 C-57.36202653 30.40076802 -58.27744724 33.43209757 -57.6875 38.25 C-49.05222823 51.22356621 -26.18887389 56.72269624 -11.80322266 59.88378906 C-10.09131022 60.21738621 -8.37691249 60.53870004 -6.65942383 60.84228516 C-4.6875 61.25 -4.6875 61.25 -2.6875 62.25 C-2.5625 65.125 -2.5625 65.125 -2.6875 68.25 C-4.6875 70.25 -4.6875 70.25 -7.734375 70.53125 C-12.41121251 70.19851057 -16.47682868 69.13722938 -20.9375 67.75 C-21.80358887 67.48372803 -22.66967773 67.21745605 -23.56201172 66.94311523 C-39.38327256 61.93538958 -56.64229265 56.29846342 -66.6875 42.25 C-68.56604318 38.49291364 -68.19894917 34.34159339 -67.6875 30.25 C-63.52046953 19.02950819 -52.06491705 12.76556361 -41.8125 8.0078125 C-28.44524225 2.12846359 -14.48528869 0.10807997 0 0 Z " fill="#0B0A0A" transform="translate(201.6875,384.75)"/>
<path d="M0 0 C4.32836744 0.45561762 5.79628333 3.03644181 8.4921875 6.24609375 C11.51509504 10.45541124 13.97214671 14.90482756 16.44287109 19.45361328 C21.29293039 28.44525071 21.29293039 28.44525071 28.671875 35.28125 C30.36664939 35.69546802 32.07788736 36.04555827 33.796875 36.34375 C38.57169925 37.18107425 38.57169925 37.18107425 39.671875 38.28125 C39.859375 40.71875 39.859375 40.71875 39.671875 43.28125 C37.2645291 45.6885959 36.49130798 45.65519558 33.171875 45.78125 C26.84618495 45.61694636 22.46326358 43.32120665 17.671875 39.28125 C12.61163367 33.62981215 9.51755062 27.0408994 6.29296875 20.2421875 C4.09940467 16.23562949 1.28974386 12.9883655 -1.7890625 9.6328125 C-3.73412152 6.66092029 -3.69139304 4.76665955 -3.328125 1.28125 C-2.328125 0.28125 -2.328125 0.28125 0 0 Z " fill="#090A0A" transform="translate(298.328125,469.71875)"/>
<path d="M0 0 C4.58404193 1.50166891 8.52659753 3.66898057 12.625 6.1875 C11.52116597 9.4990021 10.93191686 9.98536043 8.22265625 11.97265625 C7.50553467 12.49883545 6.78841309 13.02501465 6.04956055 13.56713867 C5.27008057 14.12248291 4.49060059 14.67782715 3.6875 15.25 C2.88932861 15.82274658 2.09115723 16.39549316 1.26879883 16.9855957 C-8.20036025 23.65134265 -18.45273856 30.17480277 -29.375 34.1875 C-26.35856056 22.72503011 -18.44730216 14.40121475 -10.375 6.1875 C-9.70855469 5.48496094 -9.04210937 4.78242187 -8.35546875 4.05859375 C-5.57200556 1.35052912 -3.92118802 0.21784378 0 0 Z " fill="#F7F8F7" transform="translate(230.375,580.8125)"/>
<path d="M0 0 C2.46875 0.07421875 2.46875 0.07421875 5 1 C6.40625 3.14453125 6.40625 3.14453125 7.5 5.8125 C10.07014966 11.44622526 10.07014966 11.44622526 15 15 C20.25837926 15.65087431 24.30562806 15.51025363 29 13 C31.625 12.75 31.625 12.75 34 13 C34.66 13.66 35.32 14.32 36 15 C35.9375 17.4375 35.9375 17.4375 35 20 C32.5625 21.75 32.5625 21.75 30 23 C29.34 23.33 28.68 23.66 28 24 C11.58946008 25.22376887 11.58946008 25.22376887 5 20 C0.74104623 15.74104623 -1.7449645 10.70337632 -2.3125 4.6875 C-2 2 -2 2 0 0 Z " fill="#0D0D0D" transform="translate(305,682)"/>
<path d="M0 0 C1.18142578 0.00966797 1.18142578 0.00966797 2.38671875 0.01953125 C4.3125 0.1875 4.3125 0.1875 5.3125 1.1875 C5.35330783 3.18708364 5.35504356 5.18795254 5.3125 7.1875 C4.72082031 7.34605469 4.12914062 7.50460937 3.51953125 7.66796875 C2.72933594 7.90128906 1.93914062 8.13460937 1.125 8.375 C0.34769531 8.59542969 -0.42960937 8.81585937 -1.23046875 9.04296875 C-7.53330433 11.97894781 -10.06727217 17.37998665 -12.8125 23.375 C-16.29562259 30.92624839 -16.29562259 30.92624839 -19.6875 33.1875 C-22.375 32.8125 -22.375 32.8125 -24.6875 32.1875 C-25.5625 29.8125 -25.5625 29.8125 -25.6875 26.1875 C-24.03250355 22.63322718 -21.83654459 19.45903663 -19.6875 16.1875 C-18.66221475 14.39837723 -17.64123025 12.60678153 -16.625 10.8125 C-12.75513204 4.3660881 -7.78461713 -0.14153849 0 0 Z " fill="#0B0B0B" transform="translate(336.6875,550.8125)"/>
<path d="M0 0 C0.99 0 1.98 0 3 0 C3 4.62 3 9.24 3 14 C1.39125 14.020625 -0.2175 14.04125 -1.875 14.0625 C-3.23238281 14.07990234 -3.23238281 14.07990234 -4.6171875 14.09765625 C-7 14 -7 14 -9 13 C-8.41273335 9.37036582 -6.95905107 7.49830783 -4.5 4.8125 C-3.8709375 4.11769531 -3.241875 3.42289063 -2.59375 2.70703125 C-1.74091381 1.79357681 -0.88366526 0.88366526 0 0 Z " fill="#F2F2F3" transform="translate(361,695)"/>
<path d="M0 0 C2.29013653 3.4352048 2.17842973 4.985331 2 9 C1.01 9.33 0.02 9.66 -1 10 C-1.125 3.375 -1.125 3.375 0 0 Z " fill="#CBCCCC" transform="translate(906,509)"/>
<path d="M0 0 C0 4.38968456 -2.12805101 5.76905739 -5 9 C-5.66 8.67 -6.32 8.34 -7 8 C-4.69 5.36 -2.38 2.72 0 0 Z " fill="#00100F" transform="translate(209,320)"/>
<path d="M0 0 C3.00617269 3.00617269 2.59585316 5.82381598 3 10 C0.64551835 7.44931155 0.01672076 6.28982642 -0.1875 2.75 C-0.125625 1.8425 -0.06375 0.935 0 0 Z " fill="#091A20" transform="translate(484,723)"/>
<path d="" fill="#FFFFFF" transform="translate(0,0)"/>
<path d="" fill="#FFFFFF" transform="translate(0,0)"/>
</svg>
