<?xml version="1.0" encoding="UTF-8"?>
<svg version="1.1" xmlns="http://www.w3.org/2000/svg" width="1280" height="1280">
<path d="M0 0 C1.54669851 0.18923988 3.09341057 0.378369 4.64013672 0.56738281 C31.60133645 3.91295165 57.83455171 9.88925789 84 17.125 C85.11770782 17.43381607 85.11770782 17.43381607 86.25799561 17.74887085 C96.28208052 20.53327709 106.16394565 23.60873249 116 27 C117.03237793 27.35513672 118.06475586 27.71027344 119.12841797 28.07617188 C144.15881568 36.77593748 168.42917721 46.63962482 191.42382812 59.85571289 C194.60718723 61.68296436 197.80373838 63.42196615 201.09765625 65.04296875 C206.98045211 67.9480707 212.45886089 71.49904678 218 75 C218.65709961 75.41169434 219.31419922 75.82338867 219.99121094 76.24755859 C230.06587168 82.57223322 239.69176084 89.32095907 249.12548828 96.56494141 C251.16915469 98.12949873 253.22106998 99.68251899 255.27734375 101.23046875 C256.23821899 101.95399536 256.23821899 101.95399536 257.21850586 102.69213867 C258.78076664 103.83905261 260.38743795 104.92495863 262 106 C262 106.66 262 107.32 262 108 C262.52980469 108.22171875 263.05960938 108.4434375 263.60546875 108.671875 C266.8460925 110.46928458 269.52524934 112.83486498 272.3125 115.25 C272.89064453 115.74580566 273.46878906 116.24161133 274.06445312 116.75244141 C275.20401331 117.73016867 276.34224343 118.70944873 277.47900391 119.69042969 C279.30814233 121.26530906 281.15479696 122.81900097 283 124.375 C286.92466314 127.80908025 290.48875499 131.36327551 293.8125 135.375 C295.98086989 137.94717346 298.24136188 140.14437758 300.8125 142.3125 C305.68357428 146.46124768 309.7844133 151.20171275 314 156 C315.51978936 157.6676187 317.04061467 159.33429389 318.5625 161 C322.91657735 165.84868855 327.00171684 170.85545136 331 176 C331.47985352 176.61262695 331.95970703 177.22525391 332.45410156 177.85644531 C340.09541999 187.62584503 347.29521138 197.56586582 354 208 C354.90105469 209.39412109 354.90105469 209.39412109 355.8203125 210.81640625 C356.94117692 212.56547607 358.05446433 214.31942444 359.16015625 216.078125 C360.55028391 218.2858012 361.9549107 220.48103251 363.37109375 222.671875 C368.78518521 231.10444223 373.56090066 239.64182091 377.87353516 248.68359375 C379.08987344 251.18481128 380.36051923 253.6538178 381.63671875 256.125 C394.63916066 281.71637079 405.51599935 309.99948445 412 338 C412.14806091 338.6340979 412.29612183 339.2681958 412.44866943 339.92150879 C417.69967932 362.48522837 421.69331455 384.9426904 424 408 C424.11037598 409.09425293 424.22075195 410.18850586 424.33447266 411.31591797 C425.20257966 420.13233065 425.99222146 428.94313452 426.26049805 437.80053711 C426.31717651 439.04395874 426.31717651 439.04395874 426.375 440.3125 C426.40281052 440.94824951 426.43062103 441.58399902 426.45927429 442.23901367 C426.74963625 447.42690104 427.62403281 452.22382249 428.87109375 457.2578125 C431.2153258 467.28091608 432.52382727 477.34444597 433.6875 487.5625 C433.7942807 488.47599213 433.9010614 489.38948425 434.01107788 490.33065796 C435.70572694 504.88869248 436.85991736 519.33490441 437 534 C437.04060547 535.80791016 437.04060547 535.80791016 437.08203125 537.65234375 C437.32242759 554.98273466 435.84065301 572.27530147 433.5625 589.4375 C433.4360611 590.39756958 433.30962219 591.35763916 433.17935181 592.34680176 C427.11304053 637.47024288 412.70809302 688.28119368 385.44140625 725.53515625 C383.24885782 728.5446508 381.6543051 731.66059157 380 735 C378.53417558 737.18506289 377.05211718 739.31667046 375.5 741.4375 C375.0656665 742.0365918 374.63133301 742.63568359 374.18383789 743.25292969 C373.26260762 744.52202677 372.33947146 745.78974231 371.41455078 747.05615234 C370.00383303 748.99473272 368.60810517 750.94337801 367.21484375 752.89453125 C362.4940062 759.46968724 357.67215612 765.71650926 352.140625 771.64453125 C350.00544856 773.9940046 348.0738879 776.43233504 346.125 778.9375 C341.60437161 784.5185227 336.6248608 789.59715136 331.5625 794.6875 C330.77568848 795.48341553 329.98887695 796.27933105 329.17822266 797.09936523 C324.44719019 801.80643444 319.54537878 806.09310617 314.2878418 810.20239258 C311.31132817 812.54110455 308.47880314 815.01322141 305.625 817.5 C300.61086492 821.80358181 295.41093768 825.57369917 289.8515625 829.16015625 C287.08524261 830.945001 284.38128367 832.79534077 281.6875 834.6875 C280.87925781 835.2546875 280.07101562 835.821875 279.23828125 836.40625 C277.85160031 837.39362491 276.47235741 838.39165223 275.10546875 839.40625 C271.62381576 841.98408788 268.15743101 843.99446474 264.25 845.859375 C261.68619193 847.15908326 259.26869217 848.63174681 256.8125 850.125 C235.06715261 862.8779105 211.13107033 871.9278792 187 879 C185.824375 879.35578125 184.64875 879.7115625 183.4375 880.078125 C161.33356278 886.40788884 138.12730396 889.88128231 115.140625 890.08984375 C113.98248291 890.10821289 112.82434082 890.12658203 111.63110352 890.14550781 C109.40519012 890.17265117 107.1786302 890.17013851 104.95288086 890.13183594 C96.72408719 890.2278288 92.23300153 892.77934489 86 898 C84.92865558 898.82017451 83.85486503 899.63717627 82.77734375 900.44921875 C81.37162109 901.55716797 81.37162109 901.55716797 79.9375 902.6875 C73.44948812 907.74645176 66.74110487 912.4684159 60.00390625 917.1875 C55.88516018 920.07284026 51.81776803 923.02481939 47.7578125 925.9921875 C44.41255151 928.42768913 41.05253798 930.84192641 37.6875 933.25 C37.11233643 933.66266113 36.53717285 934.07532227 35.94458008 934.50048828 C32.34269909 937.07452945 28.69402333 939.56046329 25 942 C15.61431336 948.22574073 6.25476748 954.47610433 -2.984375 960.91796875 C-6.00702344 963.00484908 -9.05983178 965.03870303 -12.125 967.0625 C-16.83693379 970.18738559 -21.41037787 973.45991452 -25.96484375 976.80859375 C-30.2195329 979.88051217 -34.55227827 982.83397599 -38.88793945 985.79003906 C-42.71982168 988.40931175 -46.50196916 991.07986424 -50.24438477 993.82519531 C-58.47821177 999.84235974 -67.08920623 1005.04933256 -76 1010 C-76.68384766 1010.38494629 -77.36769531 1010.76989258 -78.07226562 1011.16650391 C-91.37333306 1018.57263517 -106.12566559 1023.92553172 -121.375 1019.625 C-124.39791729 1018.67494028 -126.31893938 1017.78737375 -129 1016 C-131.69255545 1015.95937955 -134.31475474 1016.00987226 -137 1016.125 C-145.70648535 1016.30475274 -153.25392487 1015.10453952 -160.375 1009.6875 C-167.57074028 1002.32043257 -170.10312656 994.6462899 -173 985 C-173.32355469 983.98808594 -173.64710938 982.97617188 -173.98046875 981.93359375 C-177.71710064 969.60095424 -176.25152827 958.05292529 -170.5 946.5 C-164.21571741 935.73137749 -154.8191718 927.47613551 -145 920 C-144.37480469 919.50886719 -143.74960937 919.01773438 -143.10546875 918.51171875 C-139.24645421 915.59260471 -135.13923531 913.47294326 -130.78686523 911.37548828 C-128.12631094 910.06234216 -125.52278681 908.68106189 -122.921875 907.25390625 C-121.96120117 906.72692139 -121.00052734 906.19993652 -120.01074219 905.65698242 C-118.5204248 904.83677612 -118.5204248 904.83677612 -117 904 C-116.03481445 903.47059814 -115.06962891 902.94119629 -114.07519531 902.39575195 C-88.34663526 888.24759889 -62.63989721 873.09419026 -41 853 C-41 852.34 -41 851.68 -41 851 C-42.52079274 849.84234666 -42.52079274 849.84234666 -44.5 848.75 C-48.13811139 846.56713317 -51.49189438 844.18619938 -54.85546875 841.60546875 C-57.2533157 839.81035928 -59.71408748 838.12674914 -62.1875 836.4375 C-71.30573647 830.08279058 -71.30573647 830.08279058 -73 825 C-73.639375 824.690625 -74.27875 824.38125 -74.9375 824.0625 C-77.50051718 822.74215782 -77.7407337 821.5185326 -79 819 C-79.57234375 818.76152344 -80.1446875 818.52304687 -80.734375 818.27734375 C-84.04718182 816.40960611 -85.99527029 813.54536479 -88.25 810.5625 C-88.97352661 809.61914795 -88.97352661 809.61914795 -89.71166992 808.65673828 C-90.6891648 807.37751543 -91.66275621 806.09529991 -92.63232422 804.81005859 C-93.83793091 803.21449129 -95.0602802 801.63160419 -96.28515625 800.05078125 C-109.05132115 783.20141139 -114.25456414 765.86443588 -113 745 C-111.90222965 737.53170408 -108.97507777 731.36326678 -105 725 C-104.34 725 -103.68 725 -103 725 C-102.72929688 724.40058594 -102.45859375 723.80117188 -102.1796875 723.18359375 C-98.80928592 716.94500275 -92.11130498 713.40142203 -85.703125 710.921875 C-73.36478513 707.85030516 -60.18915124 708.84210849 -49 715 C-45.49712371 717.14471784 -42.22564418 719.46016846 -39 722 C-38.35675781 722.49113281 -37.71351563 722.98226562 -37.05078125 723.48828125 C-35.64868135 724.59623432 -34.31443457 725.78933658 -33 727 C-33 727.66 -33 728.32 -33 729 C-32.401875 729.26167969 -31.80375 729.52335938 -31.1875 729.79296875 C-28.85452228 731.08027253 -27.68320717 732.26547461 -26 734.3125 C-23.70034166 737.04397191 -21.35787098 739.71011814 -18.9140625 742.3125 C-18.37265625 742.88959717 -17.83125 743.46669434 -17.2734375 744.0612793 C-16.18561822 745.21692617 -15.09453184 746.36950751 -14 747.51879883 C-11.67822657 749.99647339 -10.087158 751.738526 -9 755 C-8.01 755.33 -7.02 755.66 -6 756 C-4.62804426 757.29355827 -3.28817344 758.62298702 -2 760 C-2.69123529 739.86252103 -4.26342256 719.97582184 -6.9375 700 C-7.06465393 699.048974 -7.19180786 698.097948 -7.32281494 697.11810303 C-8.43034258 688.89996037 -9.56897711 680.6876475 -10.85986328 672.49609375 C-10.99912735 671.60374023 -11.13839142 670.71138672 -11.28187561 669.79199219 C-11.54461291 668.12106169 -11.81317468 666.45103062 -12.08909607 664.78222656 C-12.92661402 659.46161557 -13.11223285 654.38717681 -13 649 C-13.72960937 649.73992188 -14.45921875 650.47984375 -15.2109375 651.2421875 C-28.17402965 664.06003492 -43.89897248 672.99716165 -60.95239258 679.2199707 C-65.68400758 681.02246384 -70.33290069 683.0380019 -75 685 C-76.80052595 685.75191373 -78.60129885 686.50323643 -80.40234375 687.25390625 C-81.74558716 687.81416504 -81.74558716 687.81416504 -83.1159668 688.38574219 C-84.04707275 688.77407227 -84.97817871 689.16240234 -85.9375 689.5625 C-86.94530518 689.98305664 -87.95311035 690.40361328 -88.99145508 690.83691406 C-94.83748213 693.27398076 -100.68875747 695.69765418 -106.546875 698.10546875 C-108.46807145 698.89628672 -110.38920395 699.68725989 -112.31033325 700.47824097 C-114.12720777 701.22521207 -115.9452978 701.96922456 -117.76342773 702.71313477 C-124.60387817 705.52956415 -131.33927683 708.50964333 -138.04223633 711.63867188 C-141.90142613 713.41488668 -145.80900465 715.04079508 -149.75 716.625 C-154.72786323 718.65161099 -159.68497711 720.69760086 -164.58203125 722.9140625 C-168.58032125 724.7097404 -172.60482175 726.44651083 -176.62719727 728.1875 C-180.8597283 730.03058613 -185.05054344 731.95103728 -189.234375 733.90234375 C-195.58827566 736.84209888 -202.01094436 739.56146796 -208.5 742.1875 C-209.64710449 742.65236816 -210.79420898 743.11723633 -211.97607422 743.59619141 C-253.30137792 760.24817027 -253.30137792 760.24817027 -269 764 C-269.91104492 764.21881836 -270.82208984 764.43763672 -271.76074219 764.66308594 C-292.25391333 769.45257585 -320.33653693 775.5804342 -339.796875 764.46484375 C-347.65933822 759.23714214 -352.38445197 753.21164248 -357 745 C-357.76570313 743.75283203 -357.76570313 743.75283203 -358.546875 742.48046875 C-363.46986363 733.47803729 -363.72325512 722.57682687 -361.1484375 712.75 C-357.1870768 703.26429274 -350.15953677 695.14946299 -342 689 C-341.33097656 688.48308594 -340.66195312 687.96617187 -339.97265625 687.43359375 C-319.44897042 672.31272436 -294.77135189 662.47295874 -271.57836914 652.3137207 C-263.53825115 648.76281111 -255.75587342 644.88973952 -248.0625 640.64453125 C-245 639 -245 639 -242 638 C-241.67 637.34 -241.34 636.68 -241 636 C-242.60875 636.0928125 -242.60875 636.0928125 -244.25 636.1875 C-258.74430719 636.11081054 -270.44898877 629.19848502 -280.67578125 619.453125 C-285.55265898 614.30576498 -287.11048674 610.07414792 -288 603 C-288.82854492 603.24907104 -288.82854492 603.24907104 -289.67382812 603.50317383 C-296.09336706 605.41986094 -302.53692445 607.23605759 -309 609 C-310.89685547 609.52787109 -310.89685547 609.52787109 -312.83203125 610.06640625 C-339.05773663 616.15924689 -368.37724585 612.43105557 -393.171875 602.72265625 C-395.89873943 601.75736709 -395.89873943 601.75736709 -398.12890625 602.69140625 C-398.74636719 603.12324219 -399.36382812 603.55507813 -400 604 C-400.65355469 604.43054688 -401.30710937 604.86109375 -401.98046875 605.3046875 C-402.70878906 605.82289063 -403.43710937 606.34109375 -404.1875 606.875 C-405.05890625 607.49117187 -405.9303125 608.10734375 -406.828125 608.7421875 C-408.53475525 609.95700558 -410.2412927 611.17195433 -411.94726562 612.38769531 C-456.96425723 644.44398096 -456.96425723 644.44398096 -471.0390625 643.40234375 C-475.3519227 642.51743419 -477.80955831 640.64491231 -480.37109375 637.10546875 C-492.72275027 615.59086229 -487.44562587 584.99425762 -485.06787109 561.43017578 C-484.36813577 554.40249864 -483.82196797 547.39584039 -483.6953125 540.33203125 C-483.66969238 539.0685083 -483.64407227 537.80498535 -483.61767578 536.50317383 C-484.18716228 531.28506286 -486.63516213 528.00134488 -489.578125 523.76953125 C-506.06064347 499.33670112 -511.55195223 465.88550021 -511 437 C-511.825 436.59797363 -512.65 436.19594727 -513.5 435.78173828 C-566.59522068 409.81930127 -566.59522068 409.81930127 -575.375 391.0625 C-577.29956592 381.632127 -575.68634346 374.03120691 -570.6796875 365.83984375 C-567.11043093 360.77852091 -562.82137396 356.84727633 -558 353 C-557.14792969 352.31164062 -556.29585937 351.62328125 -555.41796875 350.9140625 C-543.57939641 341.68289118 -530.75399011 334.60963293 -517.125 328.375 C-516.1673877 327.93679932 -515.20977539 327.49859863 -514.22314453 327.04711914 C-507.39184861 324 -507.39184861 324 -504 324 C-503.84144531 323.46632813 -503.68289063 322.93265625 -503.51953125 322.3828125 C-496.61093452 300.32110583 -481.54092663 282.52349158 -464.59765625 267.34375 C-459.73820297 262.95928088 -456.32063056 259.3742709 -454.12890625 253.1328125 C-453.78424316 252.15538086 -453.43958008 251.17794922 -453.08447266 250.17089844 C-451.58446385 245.78501047 -450.11775351 241.38835154 -448.65185547 236.9909668 C-433.0838916 190.63449055 -409.46307188 146.65561949 -375.73828125 110.9296875 C-372.83599823 107.85268844 -370.09522481 104.65223158 -367.40234375 101.390625 C-366 100 -366 100 -363 99 C-362.32530655 97.67071035 -361.65998697 96.33665232 -361 95 C-359.07421875 93.02734375 -359.07421875 93.02734375 -356.6875 90.9375 C-355.79289063 90.15375 -354.89828125 89.37 -353.9765625 88.5625 C-352.99429688 87.716875 -352.01203125 86.87125 -351 86 C-350.48405273 85.55140625 -349.96810547 85.1028125 -349.43652344 84.640625 C-333.80495641 71.0595686 -316.7645406 59.52654053 -298.89160156 49.10449219 C-297.63829388 48.37269509 -296.38759309 47.63641353 -295.13964844 46.89550781 C-277.37096519 36.36075212 -258.30147736 28.28102804 -239 21 C-237.99163086 20.61448975 -237.99163086 20.61448975 -236.96289062 20.22119141 C-208.94467022 9.67571778 -178.90007216 4.25825793 -149.33380127 0.31573486 C-147.07465298 0.01009964 -144.81830158 -0.31121008 -142.56201172 -0.63720703 C-95.80659316 -7.30485516 -46.74392597 -5.88479647 0 0 Z M-199 24 C-200.23411621 24.32605225 -200.23411621 24.32605225 -201.49316406 24.65869141 C-223.97351712 30.67818789 -246.04458299 37.8233628 -267 48 C-267.8254834 48.39300293 -268.6509668 48.78600586 -269.50146484 49.19091797 C-285.48226651 56.80827991 -300.69836644 65.53839197 -315 76 C-315.84175781 76.59941406 -316.68351563 77.19882813 -317.55078125 77.81640625 C-320.38899217 79.84956747 -323.19899465 81.91587465 -326 84 C-326.52045898 84.38607422 -327.04091797 84.77214844 -327.57714844 85.16992188 C-352.22817658 103.58820351 -373.75894619 126.54283907 -391 152 C-392.20551626 153.73113181 -393.41387602 155.46028678 -394.625 157.1875 C-395.20507812 158.02152344 -395.78515625 158.85554687 -396.3828125 159.71484375 C-397.3330032 161.05750452 -398.30004854 162.38898509 -399.3046875 163.69140625 C-403.04206295 168.56465071 -405.59276788 173.99334877 -408.25390625 179.5 C-409.38153858 181.76030999 -410.57360225 183.99010324 -411.83984375 186.17578125 C-421.97489695 203.71731285 -428.9299207 222.59419196 -435.04101562 241.8269043 C-440.91263652 260.30492518 -448.39243855 271.86167969 -462.29321289 285.34277344 C-471.66286743 294.44035819 -480.6824587 303.8878226 -486 316 C-486 316.66 -486 317.32 -486 318 C-484.20755859 317.54947266 -484.20755859 317.54947266 -482.37890625 317.08984375 C-480.77362377 316.70495146 -479.16814414 316.32088075 -477.5625 315.9375 C-476.77939453 315.73833984 -475.99628906 315.53917969 -475.18945312 315.33398438 C-469.43420776 313.98398855 -464.84088388 314.07036983 -459 315 C-458.75 321.625 -458.75 321.625 -461 325 C-462.99267578 325.81201172 -462.99267578 325.81201172 -465.4453125 326.4296875 C-466.80039917 326.78196411 -466.80039917 326.78196411 -468.18286133 327.14135742 C-469.15376709 327.38345947 -470.12467285 327.62556152 -471.125 327.875 C-473.15279985 328.40842542 -475.18014274 328.94359087 -477.20703125 329.48046875 C-478.70097412 329.87177979 -478.70097412 329.87177979 -480.22509766 330.27099609 C-508.24689336 337.63269607 -542.06184356 350.79996743 -560 375 C-562.27300906 378.91169001 -562.89991349 382.54907653 -562 387 C-558.70547837 393.57651657 -552.90952701 397.88493986 -547 402 C-546.19949219 402.56460937 -545.39898438 403.12921875 -544.57421875 403.7109375 C-538.58605219 407.72727987 -532.35097285 410.81810128 -525.81787109 413.81274414 C-517.86012284 417.47477071 -510.16169903 421.58624107 -502.43798828 425.71337891 C-499.96985836 427.01590691 -497.48643694 428.28349041 -494.99609375 429.54296875 C-466.48142195 444.0371561 -466.48142195 444.0371561 -460 457 C-459.6875 459.9375 -459.6875 459.9375 -460 463 C-461.6875 464.9375 -461.6875 464.9375 -464 466 C-467.87143068 465.81114972 -469.45888516 464.78807741 -472 462 C-472.67675781 461.12794922 -472.67675781 461.12794922 -473.3671875 460.23828125 C-479.43821605 452.484351 -487.89734089 447.53510676 -497 444 C-495.23737364 468.47248245 -491.5516213 491.52487389 -479 513 C-478.6090918 513.67498535 -478.21818359 514.3499707 -477.81542969 515.04541016 C-471.66184399 525.55147247 -464.93375665 535.44278908 -456 543.8125 C-453.6972992 546.05615719 -452.97738653 547.06069932 -451.8125 550.1875 C-452 553 -452 553 -453.5625 555.4375 C-456 557 -456 557 -458.9375 557 C-463.65879595 555.45835234 -466.57550491 552.45410168 -470 549 C-473.61953542 582.49221222 -473.61953542 582.49221222 -472 616 C-471.34 616 -470.68 616 -470 616 C-468.56603924 613.75356253 -467.2406868 611.50835797 -465.9375 609.1875 C-461.58080256 601.67502971 -456.82050228 593.56334192 -449.73828125 588.328125 C-449.16464844 587.88984375 -448.59101563 587.4515625 -448 587 C-448 586.34 -448 585.68 -448 585 C-447.43152344 584.74089844 -446.86304688 584.48179687 -446.27734375 584.21484375 C-443.78909628 582.8874939 -441.75719186 581.33118581 -439.5625 579.5625 C-430.30119974 572.32239556 -430.30119974 572.32239556 -424.20703125 572.59375 C-419.72111536 573.41947611 -415.96167141 575.83199872 -412 578 C-409.30169262 579.37438462 -406.58796509 580.71733195 -403.875 582.0625 C-402.55963777 582.7195357 -401.24452886 583.37707881 -399.9296875 584.03515625 C-398.95950684 584.51795044 -398.95950684 584.51795044 -397.96972656 585.01049805 C-396.63856867 585.67921185 -395.31246038 586.35805873 -393.99121094 587.04614258 C-363.95526111 602.54821605 -329.60039174 601.09548576 -298.09399414 591.49804688 C-290.61628529 589.06411115 -283.69893762 585.72690665 -276.80957031 581.96362305 C-274.89689869 580.94509702 -272.95371923 580.01129782 -271 579.07421875 C-266.95477538 577.06039616 -263.36754518 574.63429484 -259.75 571.9375 C-259.10957764 571.4636084 -258.46915527 570.9897168 -257.80932617 570.50146484 C-249.76945712 564.45187948 -242.2494953 557.91687592 -236 550 C-235.35546875 549.37609375 -234.7109375 548.7521875 -234.046875 548.109375 C-231.40436333 545.38617595 -229.36763879 542.38852003 -227.25 539.25 C-226.83878906 538.64800781 -226.42757813 538.04601562 -226.00390625 537.42578125 C-224.99876568 535.95313343 -223.99884522 534.47692498 -223 533 C-223.33 532.34 -223.66 531.68 -224 531 C-229.7866305 531.90701342 -229.7866305 531.90701342 -234.26123047 535.46777344 C-236.37823053 538.45618397 -238.22515185 541.5801498 -240.0546875 544.75 C-242.19824246 548.33120025 -243.54667739 550.38807469 -247.375 552 C-250 552 -250 552 -252.875 549.875 C-255 547 -255 547 -255.0625 544.5 C-253.79330023 541.51364761 -252.07681351 539.49217622 -250 537 C-248.58626643 534.70448007 -247.29814617 532.36448052 -246 530 C-246.39832031 529.54109375 -246.79664063 529.0821875 -247.20703125 528.609375 C-248.29884308 527.34489219 -249.3845756 526.07514013 -250.46484375 524.80078125 C-251.5791944 523.49361675 -252.71955716 522.20848712 -253.875 520.9375 C-255.45713177 518.21271751 -255.26880582 516.09126692 -255 513 C-254.67 512.34 -254.34 511.68 -254 511 C-249.53800575 510.33896382 -247.2277814 510.1121021 -243.48828125 512.81640625 C-242.64652344 513.55761719 -241.80476563 514.29882812 -240.9375 515.0625 C-237.16165001 518.42401283 -237.16165001 518.42401283 -232.25 519.3125 C-227.5459003 517.41276743 -224.40986712 515.56002188 -221.9609375 511.11328125 C-218.01188591 500.5394188 -218.18516991 485.70718615 -222.7421875 475.4140625 C-223.15726562 474.61742187 -223.57234375 473.82078125 -224 473 C-224.43570312 472.14148438 -224.87140625 471.28296875 -225.3203125 470.3984375 C-230.56494528 460.91224379 -236.92166714 455.00677878 -246.77734375 450.51953125 C-249 449 -249 449 -249.94140625 446.57421875 C-250.00579229 443.74552523 -249.49137441 442.36865347 -248 440 C-240.37352707 438.95777051 -235.78286736 440.61713566 -229.53515625 445.01953125 C-215.04169008 456.34185382 -209.34638349 471.4061353 -206 489 C-198.87559829 478.31339744 -199.6879888 460.86878886 -201.50390625 448.59375 C-204.68993992 435.63114444 -212.97046831 426.89069337 -222.26953125 417.8203125 C-233.53846872 406.8081565 -242.11999024 396.31710348 -249.85107422 382.50634766 C-272.34758271 342.4869365 -302.42044358 313.1896043 -347.21875 300.19140625 C-351 299 -351 299 -354 297 C-354.27028374 293.28359861 -354.180933 290.542799 -353 287 C-347.48499194 286.74734911 -343.00710438 287.56143763 -337.75 289.1875 C-336.9976709 289.41671143 -336.2453418 289.64592285 -335.47021484 289.88208008 C-329.3791059 291.78759441 -323.69045842 294.1001249 -318 297 C-317.32243652 297.3309668 -316.64487305 297.66193359 -315.94677734 298.00292969 C-284.38092747 313.43752781 -261.94073492 337.15588524 -244 367 C-243.43410156 367.94101562 -242.86820312 368.88203125 -242.28515625 369.8515625 C-241.33101904 371.4460093 -240.37783324 373.04102598 -239.42578125 374.63671875 C-233.72892893 384.07944656 -228.04485694 393.36769983 -220 401 C-216.35714285 404.54699249 -213.00524965 408.25844235 -209.68359375 412.1015625 C-208.37056307 413.5821493 -206.97987237 414.99397052 -205.5625 416.375 C-191.85060515 430.42133131 -187.54249597 445.17610293 -187.71337891 464.41333008 C-188.43013763 502.06809391 -206.95073936 539.38527061 -233 566 C-233.91845703 566.99386719 -233.91845703 566.99386719 -234.85546875 568.0078125 C-245.7301147 579.55373289 -260.65083309 589.39938322 -275 596 C-274.10315445 602.65271997 -273.06613505 608.30913421 -268 613 C-258.44342878 619.97528188 -247.76822625 623.29680195 -236 624 C-235.00871094 624.06445312 -234.01742188 624.12890625 -232.99609375 624.1953125 C-207.45817819 625.06691371 -181.76018747 612.30003087 -162 597 C-160.97390625 596.23945312 -159.9478125 595.47890625 -158.890625 594.6953125 C-151.27523173 589.02188463 -144.31655769 582.82652279 -137.41455078 576.31298828 C-135.53339418 574.56689574 -133.58439341 572.90736745 -131.625 571.25 C-128.34842215 568.4189819 -125.56854197 565.32444323 -122.7734375 562.0234375 C-120.97538083 559.97191028 -119.0842574 558.08480459 -117.125 556.1875 C-113.25535787 552.36974962 -109.86788644 548.26852967 -106.46875 544.03125 C-104.2763847 541.33935843 -102.03170913 538.71359095 -99.75073242 536.09765625 C-92.89763425 528.23114239 -86.52297629 520.04214212 -80.27294922 511.69042969 C-79.24366732 510.32358123 -78.18993915 508.9751631 -77.12890625 507.6328125 C-75.81043392 506.05666305 -75.81043392 506.05666305 -76 504 C-75.34 504 -74.68 504 -74 504 C-72.77901967 502.56173678 -72.77901967 502.56173678 -71.5625 500.5625 C-71.03398438 499.74007813 -70.50546875 498.91765625 -69.9609375 498.0703125 C-68.99027344 496.55050781 -68.99027344 496.55050781 -68 495 C-67.16048716 493.72548536 -66.31921703 492.45212717 -65.4765625 491.1796875 C-59.21258874 481.67956866 -53.39898783 472.01646789 -48 462 C-47.50757813 461.09894531 -47.01515625 460.19789063 -46.5078125 459.26953125 C-34.17067515 435.78299337 -31.59752036 410.36329737 -39 385 C-40.35353639 381.12351159 -42.0589194 377.6133962 -44 374 C-44.63486669 372.74322308 -45.26750269 371.48531792 -45.8984375 370.2265625 C-51.1312139 359.92601261 -57.15145784 350.22573768 -63.39550781 340.51513672 C-66.18474368 336.14284398 -68.90281545 331.72673421 -71.625 327.3125 C-75.43996687 321.13414484 -79.26688453 314.96400356 -83.125 308.8125 C-87.12033325 302.44116951 -91.04865309 296.03061553 -94.94116211 289.59594727 C-97.1248681 286.00153202 -99.34354396 282.44816122 -101.6953125 278.9609375 C-102.11611084 278.33203613 -102.53690918 277.70313477 -102.97045898 277.05517578 C-104.10822678 275.36758198 -105.26250325 273.69115115 -106.41796875 272.015625 C-108.17446137 268.66744647 -108.4216014 266.72503514 -108 263 C-106.875 261.125 -106.875 261.125 -105 260 C-102.125 259.4375 -102.125 259.4375 -99 260 C-95.01081307 264.22270031 -92.16803028 268.84288888 -89.3125 273.875 C-88.42882592 275.40335262 -87.54336735 276.93067467 -86.65625 278.45703125 C-86.21152344 279.22225098 -85.76679687 279.9874707 -85.30859375 280.77587891 C-82.15894434 286.12910767 -78.81270782 291.36208868 -75.5 296.61523438 C-71.79628852 302.50355693 -68.12278386 308.41089854 -64.44067383 314.31274414 C-61.47281469 319.06409431 -58.49150576 323.80571001 -55.4765625 328.52734375 C-35.84847558 359.32432105 -17.31251522 389.23796144 -23 427.25 C-23.33496394 429.49975782 -23.66843966 431.74973805 -24 434 C-24.13664063 434.86109375 -24.27328125 435.7221875 -24.4140625 436.609375 C-25.23586814 445.9231723 -19.25430284 453.85457091 -13.74609375 460.87109375 C-11.57813015 463.34822781 -9.34769676 465.69320388 -7 468 C-6.26007812 468.72703125 -5.52015625 469.4540625 -4.7578125 470.203125 C-2.0268672 472.79392107 -2.0268672 472.79392107 1 475 C4.02637381 474.35551985 4.02637381 474.35551985 4.94799805 472.39624023 C5.21652588 471.70731689 5.48505371 471.01839355 5.76171875 470.30859375 C6.07117432 469.53749268 6.38062988 468.7663916 6.69946289 467.97192383 C7.02551514 467.13556396 7.35156738 466.2992041 7.6875 465.4375 C8.40517109 463.67818058 9.12658534 461.92038387 9.8515625 460.1640625 C10.21411133 459.28524414 10.57666016 458.40642578 10.95019531 457.50097656 C15.5220933 446.60922704 21.3331299 436.58790442 27.5625 426.5625 C28.50041382 425.05200073 28.50041382 425.05200073 29.45727539 423.51098633 C35.08765618 414.59332084 41.31971244 406.56873443 48.49609375 398.84765625 C50.2104238 397.13853683 50.2104238 397.13853683 50 395 C50.66 395 51.32 395 52 395 C53.56864082 393.4492093 53.56864082 393.4492093 55.1875 391.4375 C60.25499318 385.48870365 65.61708017 380.15333129 71.71484375 375.26171875 C72.35099609 374.63716797 72.35099609 374.63716797 73 374 C73 373.34 73 372.68 73 372 C73.82951172 371.62681641 73.82951172 371.62681641 74.67578125 371.24609375 C77.42820076 369.77042682 79.724054 367.98391839 82.1875 366.0625 C92.44118937 358.24993536 103.24539244 351.19973545 114.6875 345.25 C115.33428711 344.90251709 115.98107422 344.55503418 116.64746094 344.19702148 C120.81685126 342.11396438 123.52613402 341.61133296 128 343 C130 345 130 345 130.30859375 348.21875 C129.80944734 351.01802682 129.16051295 351.87101839 126.91455078 353.67578125 C124.0152141 355.40497026 121.07257217 356.9717237 118.0625 358.5 C102.82804507 366.50173927 89.95759334 376.32655729 77.2890625 387.95703125 C75.71178125 389.36474131 74.08493822 390.71818485 72.421875 392.0234375 C70.20525232 393.83248762 68.45294146 395.62342864 66.625 397.8125 C64.3748301 400.45632813 62.08179063 402.92519954 59.5625 405.3125 C55.07296846 409.73172568 51.59726485 414.85083362 48 420 C47.42378906 420.804375 46.84757813 421.60875 46.25390625 422.4375 C34.03792493 439.59065621 24.8349326 457.20918283 16.93530273 476.7109375 C16.31323617 478.23338494 15.67472759 479.74922023 15.01977539 481.2578125 C12.1336388 488.06562896 10.24259123 495.07283924 8.44506836 502.22998047 C7.94135041 504.23467614 7.42763607 506.23659349 6.91210938 508.23828125 C-0.1461344 535.90053714 -3.78346045 563.18726862 -3.625 591.75 C-3.62334839 593.02917297 -3.62169678 594.30834595 -3.61999512 595.62628174 C-3.54945454 619.65574459 -1.31580383 643.07883564 2.23486328 666.8203125 C2.94162592 671.55056371 3.58008601 676.28682715 4.18359375 681.03125 C5.39739929 690.53577586 6.63549627 700.02695889 8.24023438 709.47436523 C15.94416514 755.0380319 15.86417336 801.75875272 -11.21191406 840.91210938 C-18.09801454 850.54481858 -28.28390823 863.64195412 -39 869 C-39 869.66 -39 870.32 -39 871 C-39.55558594 871.24363281 -40.11117187 871.48726562 -40.68359375 871.73828125 C-44.41996832 873.77343974 -47.44279951 876.65539627 -50.66015625 879.41796875 C-55.13978855 883.04347385 -60.12276193 885.94860187 -65 889 C-66.7765365 890.14043482 -68.55131381 891.28361525 -70.32421875 892.4296875 C-80.42043112 898.9259523 -90.55959464 905.20136849 -101.09667969 910.95556641 C-105.08317291 913.14312644 -109.03700093 915.38961183 -112.99487305 917.62841797 C-116.34893072 919.52213577 -119.71288607 921.39091786 -123.10546875 923.21484375 C-144.54998638 934.81961275 -144.54998638 934.81961275 -158.70947266 953.92041016 C-159.19336181 955.59904569 -159.6037695 957.29853964 -160 959 C-159.57589844 958.62488281 -159.15179687 958.24976563 -158.71484375 957.86328125 C-156.82920604 956.21801054 -154.92061886 954.60428163 -153 953 C-152.42507813 952.51273438 -151.85015625 952.02546875 -151.2578125 951.5234375 C-146.87787563 948.07196651 -143.56102587 947.29268557 -138 947 C-136.4375 948.6875 -136.4375 948.6875 -135 951 C-135.19848033 954.20180118 -135.69440574 955.66030786 -137.85546875 958.0625 C-139.00982422 959.0215625 -139.00982422 959.0215625 -140.1875 960 C-141.0021875 960.69609375 -141.816875 961.3921875 -142.65625 962.109375 C-144.44884487 963.55540153 -146.30592012 964.92182597 -148.1875 966.25 C-153.39031064 971.33719262 -157.2703103 978.42735377 -157.625 985.8125 C-157.21834155 991.14747162 -154.98031361 995.08569685 -151.125 998.8125 C-146.07206612 1001.63619835 -141.75318904 1002.23012756 -136 1002 C-136.0825 1001.113125 -136.165 1000.22625 -136.25 999.3125 C-136.18772613 989.05806875 -131.57553307 979.6264822 -125 972 C-119.0196522 966.10138816 -119.0196522 966.10138816 -115.0546875 965.90234375 C-113.03645833 965.93489583 -111.01822917 965.96744792 -109 966 C-108.21296296 974.02777778 -108.21296296 974.02777778 -111.125 977.625 C-112.07375 978.40875 -113.0225 979.1925 -114 980 C-115.08753072 981.14336971 -116.14947743 982.31150242 -117.1875 983.5 C-117.67605469 984.0465625 -118.16460938 984.593125 -118.66796875 985.15625 C-121.62243735 989.24571973 -122.24496001 992.83415958 -122.125 997.8125 C-122.10695313 998.78832031 -122.08890625 999.76414062 -122.0703125 1000.76953125 C-122.04710937 1001.50558594 -122.02390625 1002.24164062 -122 1003 C-114.93230813 1007.58444878 -107.23763414 1006.6605043 -99.3125 1005 C-86.15905011 1001.35383643 -74.95317018 993.89129287 -64 986 C-62.02682204 984.67851384 -60.04769781 983.36585973 -58.0625 982.0625 C-53.09829824 978.77257626 -48.25726855 975.33954569 -43.42871094 971.85620117 C-38.50056652 968.31823682 -33.46802484 964.95594289 -28.40405273 961.61645508 C-24.61341155 959.10636231 -20.90879711 956.51366031 -17.25 953.8125 C-12.84719431 950.56420781 -8.31578964 947.61342638 -3.6796875 944.7109375 C-0.24258099 942.51640011 3.07535732 940.17324133 6.40234375 937.81640625 C10.13887852 935.20364133 13.94326435 932.69648486 17.75 930.1875 C21.32702207 927.77988899 24.85719385 925.31139443 28.38574219 922.83349609 C30.8482047 921.10646084 33.31722643 919.38936352 35.7890625 917.67578125 C46.36183603 910.33147578 56.78706286 902.83739553 67 895 C67.59474121 894.54560547 68.18948242 894.09121094 68.80224609 893.62304688 C77.62518512 886.86422337 86.07488525 879.7309292 94.41845703 872.390625 C96.37626579 870.66915561 98.34490342 868.96026503 100.3125 867.25 C100.90933594 866.72277344 101.50617187 866.19554687 102.12109375 865.65234375 C103.51868791 864.42327446 104.92974724 863.20948279 106.34765625 862.00390625 C114.87194609 854.61267502 122.98523876 846.21525437 128 836 C128.39574219 835.20464844 128.79148437 834.40929687 129.19921875 833.58984375 C134.53408588 822.45551144 137.39960031 810.77267471 139.94998169 798.74035645 C144.12693345 779.17973362 149.08967558 760.80457851 162 745 C162.52207031 744.33226562 163.04414062 743.66453125 163.58203125 742.9765625 C168.02726863 737.54233788 173.10675011 733.76254835 179 730 C179.59087402 729.61481201 180.18174805 729.22962402 180.79052734 728.83276367 C185.61861137 725.73376032 190.5561152 723.11727847 195.75 720.6875 C196.57218018 720.29997559 197.39436035 719.91245117 198.24145508 719.51318359 C203.98215666 716.84503918 209.7921667 714.42801242 215.6875 712.125 C238.38980635 703.23895089 259.8666276 693.09557598 279.28662109 678.29150391 C282.67891795 675.73447193 286.16463044 673.30413985 289.6328125 670.8515625 C292.31886005 668.75059461 294.61793785 666.43980912 297 664 C297.97871829 663.06190901 298.96063319 662.12714449 299.9453125 661.1953125 C314.00266309 647.71285513 324.6846575 632.25875097 332.34765625 614.30078125 C334 612 334 612 337.03125 611.07421875 C340 611 340 611 342.4375 612.5 C344.65639864 616.05023783 343.86295326 617.9507578 343 622 C341.93481713 624.60316232 340.84927883 627.01536734 339.5625 629.5 C339.03450806 630.53386841 339.03450806 630.53386841 338.49584961 631.58862305 C331.7493549 644.48058517 323.17647995 656.03102533 313.453125 666.828125 C310.69445781 670.14773353 309.15928333 673.70845754 307.5625 677.6875 C299.34655799 697.205372 287.48621945 715.15735415 273.109375 730.69921875 C271.20964982 732.7713264 269.41773619 734.89841131 267.625 737.0625 C264.11084463 741.09368053 260.11127031 744.34688006 255.92578125 747.66015625 C254.01419276 749.1889166 252.13423422 750.75832587 250.29296875 752.37109375 C241.53350685 760.02796604 231.94355142 766.00995932 222 772 C221.3404834 772.40605469 220.6809668 772.81210937 220.00146484 773.23046875 C201.84266365 784.37585498 180.88435819 793.67611764 159.80566406 797.38623047 C157.3578713 797.81521272 157.3578713 797.81521272 154 799 C152.42634728 801.09694139 152.42634728 801.09694139 152 804 C151.85868652 804.62132812 151.71737305 805.24265625 151.57177734 805.8828125 C151.07992045 808.08303516 150.63442502 810.29024282 150.1875 812.5 C146.52464841 829.62206272 139.65535559 845.80103686 128 859 C127.00806641 860.17175781 127.00806641 860.17175781 125.99609375 861.3671875 C122.11554245 865.87804361 118.04621294 869.88468464 113.46875 873.6875 C112.9840625 874.120625 112.499375 874.55375 112 875 C112 875.33 112 875.66 112 876 C139.22167727 875.13534651 165.97549725 871.20507788 192 863 C193.20527344 862.62101563 194.41054688 862.24203125 195.65234375 861.8515625 C223.56695712 852.80596023 250.26044293 839.83421695 274.38818359 823.11669922 C275.85313031 822.10175431 277.32651034 821.09900901 278.80078125 820.09765625 C301.03246305 804.85011088 322.8632165 785.84392442 340 765 C340.73331543 764.11344727 340.73331543 764.11344727 341.48144531 763.20898438 C343.2219282 761.10181821 344.95594885 758.98951099 346.6875 756.875 C347.52680054 755.85237061 347.52680054 755.85237061 348.38305664 754.80908203 C351.4829856 750.99399932 354.31028738 747.12088476 357 743 C358.49654825 740.95580184 359.99681411 738.91432218 361.5 736.875 C367.43362763 728.67955511 372.55405469 720.02131046 377.65283203 711.29052734 C378.79860229 709.34242721 379.96649723 707.41208875 381.15234375 705.48828125 C413.70402972 651.36860703 432.73521052 571.79085399 422 509 C421.34 508.34 420.68 507.68 420 507 C419.86424561 507.71655762 419.72849121 508.43311523 419.58862305 509.17138672 C418.96782814 512.40855764 418.3279291 515.6416588 417.6875 518.875 C417.47416016 520.00292969 417.26082031 521.13085938 417.04101562 522.29296875 C416.71713867 523.90751953 416.71713867 523.90751953 416.38671875 525.5546875 C416.19295654 526.54968262 415.99919434 527.54467773 415.79956055 528.56982422 C415 531 415 531 412 533 C408.9375 533.25 408.9375 533.25 406 533 C404 531 404 531 403.7409668 528.57739258 C403.79047692 521.43104327 404.49693268 514.70425392 405.8125 507.6875 C407.27026762 499.43439245 408.60049057 491.1855865 409.6875 482.875 C409.80649658 481.98901123 409.92549316 481.10302246 410.0480957 480.19018555 C416.32649175 431.32552416 409.66549444 380.13159267 396 333 C395.68192383 331.90123535 395.68192383 331.90123535 395.35742188 330.78027344 C385.2756514 296.48720641 371.38722596 263.04622841 352.60058594 232.6015625 C351.07590815 230.12337968 349.58361893 227.62884689 348.1015625 225.125 C339.64965104 210.92219537 330.13965889 197.55069664 319.9609375 184.5390625 C318.57351138 182.74259442 317.25908988 180.88863482 316 179 C315.34 179 314.68 179 314 179 C313.63455078 178.15695312 313.63455078 178.15695312 313.26171875 177.296875 C311.75819064 174.55980215 309.93300252 172.54204059 307.8125 170.25 C305.08990902 167.29377162 302.40867314 164.31680237 299.7890625 161.26953125 C295.58558958 156.45211885 291.09255635 151.94596752 286.5625 147.4375 C285.35110352 146.22030273 285.35110352 146.22030273 284.11523438 144.97851562 C279.80054173 140.67077655 275.41193325 136.51864579 270.78881836 132.54370117 C268.30483618 130.40009269 265.90697965 128.16685615 263.5 125.9375 C258.16932314 121.07869495 252.70122549 116.78382816 246.6875 112.8125 C244 111 244 111 242.76171875 109.6953125 C240.12600676 107.15895107 237.11476273 105.15409076 234.125 103.0625 C230.77286753 100.70895015 227.45423528 98.36429411 224.2578125 95.80078125 C221.94386535 93.95522825 219.52468926 92.55241476 216.9375 91.125 C214.80181582 89.88492531 212.78662868 88.52154538 210.75 87.125 C206.70427015 84.4007397 202.54915726 82.04178417 198.24609375 79.75 C195.82303375 78.44370532 193.42583426 77.11318062 191.03515625 75.75 C160.51972267 58.39598758 128.18415904 45.40076287 94.68359375 35.13232422 C91.52214817 34.16050658 88.36914547 33.16703624 85.21875 32.16015625 C73.94258211 28.60017903 62.54083074 25.9880508 50.96191406 23.61328125 C47.99909198 22.99981199 45.04231563 22.36250109 42.0859375 21.71875 C36.0694011 20.41616517 30.04039644 19.18677313 24 18 C23.09846191 17.82082031 22.19692383 17.64164063 21.26806641 17.45703125 C-49.96226137 3.67970554 -128.81458166 5.39212218 -199 24 Z M-32 459 C-32.3309668 459.66306152 -32.66193359 460.32612305 -33.00292969 461.00927734 C-41.97140835 478.87525221 -51.77077352 495.40707118 -63.921875 511.2734375 C-66.00098561 514.00129315 -68.00429241 516.77322365 -70 519.5625 C-73.41062404 524.26983654 -77.01114138 528.781055 -80.72265625 533.25390625 C-82.22307399 535.06315782 -83.71045975 536.88330864 -85.18359375 538.71484375 C-90.35838369 545.14412822 -95.79591803 551.23545991 -101.41601562 557.27270508 C-102.60298153 558.5670614 -103.77660211 559.87367737 -104.94335938 561.1862793 C-110.44823454 567.37926386 -116.15357873 573.33984521 -122.01123047 579.1965332 C-123.50389283 580.69139857 -124.98832656 582.1941315 -126.47265625 583.69726562 C-131.52149505 588.77294884 -136.60738387 593.49322264 -142.43554688 597.67114258 C-142.95181641 598.10966553 -143.46808594 598.54818848 -144 599 C-144 599.66 -144 600.32 -144 601 C-144.57782227 601.27384521 -145.15564453 601.54769043 -145.75097656 601.82983398 C-147.97498794 602.98698624 -149.93984962 604.27440999 -151.984375 605.72265625 C-166.59685294 615.96653488 -180.96496915 624.4853406 -197.52734375 631.17578125 C-204.61477043 634.03985713 -211.54857607 637.18671722 -218.375 640.625 C-219.04853516 640.96273437 -219.72207031 641.30046875 -220.41601562 641.6484375 C-226.53644955 644.73380693 -232.60265062 647.92076455 -238.64990234 651.14697266 C-253.13819461 658.84418023 -267.9293667 665.7950462 -282.86376953 672.57275391 C-291.20435837 676.36236113 -299.51720779 680.18977201 -307.71875 684.2734375 C-308.3518811 684.5876062 -308.98501221 684.9017749 -309.6373291 685.22546387 C-323.79665895 692.35000556 -340.22375428 701.31976511 -347.1171875 716.31640625 C-348.8440962 721.56590305 -349.09646478 726.85057987 -347.265625 732.109375 C-344.43184017 737.54466721 -339.93392811 741.15130759 -334.3125 743.47265625 C-329.00238779 744.68357711 -323.40987592 744.20258897 -318 744 C-318 743.01 -318 742.02 -318 741 C-319.19625 740.484375 -320.3925 739.96875 -321.625 739.4375 C-328.64236739 735.89162178 -332.39251351 730.31491446 -335.30859375 723.140625 C-336.58939175 719.17521649 -336.65848924 716.39014395 -334.875 712.625 C-333 711 -333 711 -330 710.5 C-327 711 -327 711 -325.3125 712.5 C-324.1778871 714.66116743 -323.48798538 716.5682433 -322.75 718.875 C-321.0959011 723.58214315 -318.11828318 726.29503673 -314 729 C-307.38175063 731.20608312 -302.09854348 729.63778264 -295.6484375 727.55859375 C-292.71902638 726.9407386 -290.85451878 727.16367608 -288 728 C-287 729 -287 729 -286.90234375 731.06640625 C-286.91394531 731.89011719 -286.92554688 732.71382812 -286.9375 733.5625 C-286.94652344 734.38878906 -286.95554687 735.21507812 -286.96484375 736.06640625 C-286.97644531 736.70449219 -286.98804688 737.34257813 -287 738 C-283.71094115 734.81703982 -280.65392058 731.49527665 -277.625 728.0625 C-267.20531598 716.40776161 -267.20531598 716.40776161 -261.57421875 715.69140625 C-253.86460635 715.34713398 -253.86460635 715.34713398 -249.9375 718.3125 C-246.67575043 723.28166361 -246.42016517 729.47184836 -245.734375 735.23046875 C-245.53688108 736.82687793 -245.2756158 738.41520915 -245 740 C-242.90491439 741.33731427 -242.90491439 741.33731427 -240.11767578 740.09130859 C-238.9057959 739.61516113 -237.69391602 739.13901367 -236.4453125 738.6484375 C-235.78852509 738.39252838 -235.13173767 738.13661926 -234.45504761 737.87295532 C-232.34214458 737.04746544 -230.23366619 736.21124501 -228.125 735.375 C-226.74245143 734.8339605 -225.35964144 734.2935885 -223.9765625 733.75390625 C-212.60757859 729.30460386 -201.33626058 724.68065155 -190.25 719.5625 C-169.54060726 710.07961436 -148.61846442 701.04296083 -127.65820312 692.13037109 C-125.78144078 691.33229894 -123.90518678 690.53303085 -122.02929688 689.73291016 C-109.72769335 684.48731351 -97.39710331 679.32852788 -85 674.3125 C-74.56705598 670.08343029 -64.21389694 665.73495298 -54 661 C-53.35756348 660.70673828 -52.71512695 660.41347656 -52.05322266 660.11132812 C-41.3547247 655.19587601 -32.23347603 649.42543846 -25 640 C-24.51660156 639.53207031 -24.03320312 639.06414062 -23.53515625 638.58203125 C-21.84696259 636.84228969 -20.64752212 635.06101743 -19.375 633 C-18.94960938 632.319375 -18.52421875 631.63875 -18.0859375 630.9375 C-16.11962524 627.42925942 -15.89367571 624.69351153 -15.96582031 620.75463867 C-15.98180267 619.67490784 -15.99778503 618.595177 -16.01425171 617.48272705 C-16.0353299 616.30635681 -16.05640808 615.12998657 -16.078125 613.91796875 C-16.1098329 611.38861387 -16.13953714 608.85923326 -16.16748047 606.32983398 C-16.17489824 605.66993532 -16.18231602 605.01003666 -16.18995857 604.33014107 C-16.46799028 578.55946753 -15.88208188 553.3922676 -11 528 C-10.87222168 527.33438049 -10.74444336 526.66876099 -10.61279297 525.98297119 C-8.45303824 514.86760019 -6.0153462 503.85640173 -2.55517578 493.06738281 C-1.87032414 490.87388 -1.87032414 490.87388 -2 488 C-3.79412117 486.47542623 -3.79412117 486.47542623 -6.125 485.125 C-16.21103422 478.69515318 -22.99993143 470.75794962 -29.6171875 460.90625 C-30.07351563 460.2771875 -30.52984375 459.648125 -31 459 C-31.33 459 -31.66 459 -32 459 Z M-435 592 C-435.65613281 592.50660156 -436.31226563 593.01320313 -436.98828125 593.53515625 C-446.49341215 601.28783816 -453.49660617 612.13477874 -459 623 C-459 623.66 -459 624.32 -459 625 C-453.64480262 624.53062015 -449.76268813 621.60081094 -445.375 618.75 C-444.5512085 618.22148438 -443.72741699 617.69296875 -442.87866211 617.1484375 C-436.72285718 613.17476893 -430.62595126 609.11301164 -424.5625 605 C-423.76440918 604.46084961 -422.96631836 603.92169922 -422.14404297 603.36621094 C-416.67635374 599.64528998 -416.67635374 599.64528998 -412 595 C-412 594.34 -412 593.68 -412 593 C-414.12232979 591.82823482 -416.24757791 590.66245215 -418.375 589.5 C-418.97828125 589.16613281 -419.5815625 588.83226562 -420.203125 588.48828125 C-427.30783614 584.62016074 -429.12040576 587.32754369 -435 592 Z M279.60546875 694.1953125 C271.28239386 699.71537823 263.04938814 704.7372619 254 709 C251.60201069 710.20429994 249.20604363 711.41195325 246.8125 712.625 C236.6244087 717.77343048 226.13489592 721.98005885 215.50195312 726.11328125 C197.58326997 733.18383723 178.57229347 742.13730228 168 759 C167.484375 759.78761719 166.96875 760.57523438 166.4375 761.38671875 C162.10769511 768.31675973 158 775.67299643 158 784 C186.00326134 778.59586185 212.15921886 764.69248245 235 748 C235.5377002 747.61038086 236.07540039 747.22076172 236.62939453 746.81933594 C242.1273984 742.82756787 247.26067957 738.8820258 252 734 C252.81339844 733.19820312 253.62679687 732.39640625 254.46484375 731.5703125 C259.20362758 726.88393228 263.85994807 722.22953929 268 717 C268 716.34 268 715.68 268 715 C268.99 714.67 269.98 714.34 271 714 C272.50312787 712.26966485 272.50312787 712.26966485 273.8828125 710.10546875 C274.41003906 709.31462891 274.93726563 708.52378906 275.48046875 707.70898438 C276.02316406 706.87689453 276.56585937 706.04480469 277.125 705.1875 C277.67542969 704.36701172 278.22585938 703.54652344 278.79296875 702.70117188 C282.15656679 697.68775669 282.15656679 697.68775669 284 692 C282.25981883 692 281.01858615 693.24817901 279.60546875 694.1953125 Z M-89 729 C-89.95132812 729.88945313 -89.95132812 729.88945313 -90.921875 730.796875 C-98.19572472 738.31118256 -99.46361204 745.84488929 -99.35180664 756.05566406 C-98.54429918 779.87294282 -79.36134201 801.34516036 -63.015625 817.17578125 C-56.47543353 823.09490803 -49.57166776 828.45902042 -42.2890625 833.4296875 C-40.19570351 834.86574606 -38.16070009 836.35905312 -36.125 837.875 C-33.41952158 839.71472533 -32.05995091 840.37741259 -29 841 C-14.38175681 825.71879794 -5.23167737 806.99160347 -2 786 C-1.62875 784.1128125 -1.62875 784.1128125 -1.25 782.1875 C-1.28036651 778.99901676 -1.89012325 778.11469767 -4.13671875 775.76953125 C-7.03167971 773.42368422 -9.99944596 771.20868725 -13 769 C-18.12892335 764.74065863 -22.80427324 760.30061388 -27.109375 755.2109375 C-30.20215469 751.59417448 -33.44827752 748.11691375 -36.66796875 744.61328125 C-39 742 -39 742 -40.94921875 739.453125 C-47.92629185 731.10721661 -58.05997967 724.72320853 -68.8984375 723.59375 C-76.62105534 723.18464637 -83.1762286 723.39393968 -89 729 Z M-261 729 C-262.51277198 730.55125737 -263.98518725 732.14199933 -265.4375 733.75 C-266.24058594 734.63171875 -267.04367187 735.5134375 -267.87109375 736.421875 C-269.66556992 738.59500211 -270.90094545 740.42953361 -272 743 C-267.133152 745.66891665 -263.29693212 744.79058688 -258 744 C-258.66 739.05 -259.32 734.1 -260 729 C-260.33 729 -260.66 729 -261 729 Z M-292.3125 739.875 C-298.081659 742.229418 -303.84639673 743.19643669 -310 744 C-309.6596875 745.6396875 -309.6596875 745.6396875 -309.3125 747.3125 C-309 751 -309 751 -310.3125 752.8125 C-310.869375 753.204375 -311.42625 753.59625 -312 754 C-312.66 754.66 -313.32 755.32 -314 756 C-304.90960096 756.27180595 -295.90683672 756.01242336 -287 754 C-286.34 753.34 -285.68 752.68 -285 752 C-285.66 751.01 -286.32 750.02 -287 749 C-287.1953125 746.30078125 -287.1953125 746.30078125 -287.125 743.3125 C-287.10695313 742.31863281 -287.08890625 741.32476563 -287.0703125 740.30078125 C-287.04710937 739.54152344 -287.02390625 738.78226563 -287 738 C-288.86589393 738 -290.63162539 739.14045511 -292.3125 739.875 Z " fill="#FBFCF9" transform="translate(713,141)"/>
<path d="M0 0 C17.31631644 -0.24050439 17.31631644 -0.24050439 20.625 2.51171875 C22.25570692 4.51032906 22.83179481 5.47609968 22.90625 8.08203125 C21.32373047 11.16577148 21.32373047 11.16577148 18.90625 14.08203125 C15.86376953 14.86743164 15.86376953 14.86743164 12.2890625 14.9296875 C10.97035156 14.97440186 9.65164062 15.01911621 8.29296875 15.06518555 C7.5973584 15.07738129 6.90174805 15.08957703 6.18505859 15.10214233 C2.54952699 15.17369291 -1.07980719 15.35517175 -4.7109375 15.54296875 C-5.79408234 15.59806862 -5.79408234 15.59806862 -6.89910889 15.65428162 C-25.26674591 16.69882902 -47.51296851 22.01514288 -60.67578125 35.73046875 C-63.16730628 38.76422649 -64.42606047 41.25668186 -64.65625 45.20703125 C-64.01192048 49.64574569 -63.13992299 50.88079855 -60.09375 54.08203125 C-57.88416007 55.53047709 -55.80599617 56.7656747 -53.46875 57.95703125 C-52.81197266 58.29653809 -52.15519531 58.63604492 -51.47851562 58.98583984 C-37.87284712 65.84935666 -23.84476698 70.18517012 -9.078125 73.8203125 C1.09413578 76.34850873 1.09413578 76.34850873 3.84375 78.83203125 C5.32909764 81.97747332 4.88641479 83.79147803 3.90625 87.08203125 C2.71875 88.76171875 2.71875 88.76171875 0.90625 90.08203125 C-22.25751204 92.60584413 -53.47051606 78.19883363 -71.09375 64.08203125 C-76.02811924 59.48519215 -79.4828197 55.18231345 -80.5 48.35546875 C-80.80865722 38.81281628 -78.0632203 32.6579484 -71.84375 25.48828125 C-64.3699111 18.10558673 -55.51806624 13.52643971 -46.09375 9.08203125 C-44.99804688 8.55738281 -43.90234375 8.03273438 -42.7734375 7.4921875 C-37.92639495 5.63466907 -33.03953678 4.53094716 -27.96875 3.45703125 C-26.43287231 3.12892456 -26.43287231 3.12892456 -24.8659668 2.79418945 C-16.50420334 1.06272991 -8.53514922 0.22631077 0 0 Z " fill="#FCFCFA" transform="translate(246.09375,479.91796875)"/>
<path d="M0 0 C10.37481414 6.48425884 16.48923237 20.24325311 22.0625 30.75 C25.08384441 36.32725978 27.91028028 41.47397168 34 44 C37.38510366 44.82664314 40.78561282 45.52008093 44.19921875 46.21875 C45.12347656 46.4765625 46.04773438 46.734375 47 47 C48.54163175 50.0832635 48.29747535 52.60878099 48 56 C45.86785363 58.14199462 44.47923009 58.9240971 41.484375 59.3984375 C30.88435008 59.30758014 23.65826048 56.51901938 16 49 C12.1708326 44.17558644 9.38302146 38.77878917 6.58984375 33.3125 C6.16179443 32.47944336 5.73374512 31.64638672 5.29272461 30.78808594 C4.45194156 29.13732474 3.62510463 27.47936028 2.81469727 25.81347656 C0.32987651 20.8836085 -2.36717384 17.23033832 -6.44921875 13.49902344 C-8.92877336 11.10222474 -9.95380985 9.44342541 -10.3125 6 C-10 3 -10 3 -8.9375 1.125 C-5.78884197 -0.70325305 -3.56860824 -0.48387908 0 0 Z " fill="#FCFCFA" transform="translate(376,586)"/>
<path d="M0 0 C2.49188272 3.18960988 1.82252825 6.03456915 1.5625 10 C0.5725 10.4125 -0.4175 10.825 -1.4375 11.25 C-2.77250584 11.82949544 -4.10572557 12.41311635 -5.4375 13 C-6.13230469 13.30164063 -6.82710938 13.60328125 -7.54296875 13.9140625 C-8.23003906 14.23117187 -8.91710937 14.54828125 -9.625 14.875 C-10.25792969 15.16117188 -10.89085937 15.44734375 -11.54296875 15.7421875 C-17.25259057 19.53290549 -19.64558692 26.22318623 -22.4375 32.20507812 C-24.31217202 36.10454239 -26.00154221 39.22346845 -29.4375 42 C-32.98984986 43.13372868 -34.78248109 43.22783267 -38.3125 42 C-40.4375 40 -40.4375 40 -41.1875 36.9375 C-40.86673975 32.31077643 -38.00722669 29.18655557 -35.29296875 25.60546875 C-33.52657133 23.1250749 -32.30238191 20.77124484 -31.0625 18 C-27.39068429 10.41716235 -22.17930589 3.77556754 -14.3125 0.375 C-9.33492469 -1.25585154 -4.9788771 -2.04261625 0 0 Z " fill="#FCFCFA" transform="translate(427.4375,688)"/>
<path d="M0 0 C1.65 0.33 3.3 0.66 5 1 C4.34 2.98 3.68 4.96 3 7 C1.68 7 0.36 7 -1 7 C-1.33 8.32 -1.66 9.64 -2 11 C-2.99 10.34 -3.98 9.68 -5 9 C-6.65 10.65 -8.3 12.3 -10 14 C-9.44828634 10.1552454 -7.78537669 8.49126453 -5 5.875 C-2.10714412 3.22939276 -2.10714412 3.22939276 0 0 Z " fill="#F2F3EF" transform="translate(881,878)"/>
<path d="M0 0 C-3.96 1.98 -3.96 1.98 -8 4 C-7.34 4.33 -6.68 4.66 -6 5 C-7 7 -7 7 -9.1875 8.125 C-12.94096468 9.29274457 -16.40372422 9.79813789 -20 8 C-20 7.34 -20 6.68 -20 6 C-17.42249905 4.79816525 -14.83928838 3.61343114 -12.25 2.4375 C-11.52039063 2.09525391 -10.79078125 1.75300781 -10.0390625 1.40039062 C-9.33007812 1.08134766 -8.62109375 0.76230469 -7.890625 0.43359375 C-7.24125977 0.13509521 -6.59189453 -0.16340332 -5.92285156 -0.47094727 C-4 -1 -4 -1 0 0 Z " fill="#F5F7F0" transform="translate(467,167)"/>
<path d="M0 0 C0.99 0.33 1.98 0.66 3 1 C2.34 1.66 1.68 2.32 1 3 C1.66 3.33 2.32 3.66 3 4 C2.67 4.66 2.34 5.32 2 6 C1.34 6 0.68 6 0 6 C-0.33 6.99 -0.66 7.98 -1 9 C-2.29355827 10.37195574 -3.62298702 11.71182656 -5 13 C-5.99 12.67 -6.98 12.34 -8 12 C-7.34 10.68 -6.68 9.36 -6 8 C-6.99 8.495 -6.99 8.495 -8 9 C-6.40758592 4.70048197 -3.64459275 2.60328053 0 0 Z " fill="#F4F4EF" transform="translate(369,221)"/>
<path d="M0 0 C0.66 0.33 1.32 0.66 2 1 C1.01 2.32 0.02 3.64 -1 5 C0.32 3.35 1.64 1.7 3 0 C3.99 0.33 4.98 0.66 6 1 C6 1.66 6 2.32 6 3 C5.01 3.33 4.02 3.66 3 4 C1.7934375 5.2375 1.7934375 5.2375 0.5625 6.5 C-1.94858539 8.94983941 -2.72338559 9.4538976 -6 10 C-6.99 10.66 -7.98 11.32 -9 12 C-7.55575365 8.76138697 -5.74227753 6.38030837 -3.375 3.75 C-2.74335938 3.04359375 -2.11171875 2.3371875 -1.4609375 1.609375 C-0.97882813 1.07828125 -0.49671875 0.5471875 0 0 Z " fill="#F5F5F0" transform="translate(338,251)"/>
<path d="M0 0 C0.66 0.33 1.32 0.66 2 1 C1.505 1.391875 1.01 1.78375 0.5 2.1875 C-1.26277317 3.91307382 -1.26277317 3.91307382 -0.9375 6.375 C-1.02394788 10.00581079 -2.55958244 11.41602847 -5 14 C-5.99 14.495 -5.99 14.495 -7 15 C-6.67 13.35 -6.34 11.7 -6 10 C-6.99 10.495 -6.99 10.495 -8 11 C-7.34 9.35 -6.68 7.7 -6 6 C-5.34 6 -4.68 6 -4 6 C-3.71125 5.38125 -3.4225 4.7625 -3.125 4.125 C-2 2 -2 2 0 0 Z " fill="#F5F5F0" transform="translate(769,530)"/>
<path d="M0 0 C1 3 1 3 0 6 C-0.99 6.66 -1.98 7.32 -3 8 C-4.19232613 10.05003955 -4.19232613 10.05003955 -5 12 C-6.32 11.34 -7.64 10.68 -9 10 C-7.625 8.5 -7.625 8.5 -6 7 C-5.34 7 -4.68 7 -4 7 C-3.8453125 6.1028125 -3.8453125 6.1028125 -3.6875 5.1875 C-2.91123545 2.71756736 -1.92911079 1.67748765 0 0 Z " fill="#F4F5F1" transform="translate(1049,913)"/>
<path d="M0 0 C-1.2065625 0.4021875 -1.2065625 0.4021875 -2.4375 0.8125 C-3.283125 1.204375 -4.12875 1.59625 -5 2 C-5.33 2.99 -5.66 3.98 -6 5 C-6.33 5.99 -6.66 6.98 -7 8 C-7.78375 7.979375 -8.5675 7.95875 -9.375 7.9375 C-11.98114961 7.81315937 -11.98114961 7.81315937 -14 9 C-14 8.01 -14 7.02 -14 6 C-11.69921875 4.140625 -11.69921875 4.140625 -8.6875 2.25 C-7.70136719 1.61578125 -6.71523438 0.9815625 -5.69921875 0.328125 C-3 -1 -3 -1 0 0 Z " fill="#F5F6F2" transform="translate(401,201)"/>
<path d="M0 0 C-0.33 0.99 -0.66 1.98 -1 3 C-2.65 3.33 -4.3 3.66 -6 4 C-6.33 5.32 -6.66 6.64 -7 8 C-8.65 7.67 -10.3 7.34 -12 7 C-10.84625061 3.53875184 -10.12298029 3.11687417 -7.125 1.25 C-6.42632812 0.80140625 -5.72765625 0.3528125 -5.0078125 -0.109375 C-3 -1 -3 -1 0 0 Z " fill="#F3F3EF" transform="translate(417,191)"/>
<path d="M0 0 C1.670625 0.061875 1.670625 0.061875 3.375 0.125 C2.385 0.785 1.395 1.445 0.375 2.125 C2.025 2.455 3.675 2.785 5.375 3.125 C5.375 3.785 5.375 4.445 5.375 5.125 C-1.025 5.49423077 -1.025 5.49423077 -4.0625 3.625 C-4.578125 3.13 -5.09375 2.635 -5.625 2.125 C-3.625 0.125 -3.625 0.125 0 0 Z " fill="#F7F7F1" transform="translate(514.625,150.875)"/>
<path d="M0 0 C5.28 0 10.56 0 16 0 C15.67 0.66 15.34 1.32 15 2 C12.27734375 2.4140625 12.27734375 2.4140625 8.9375 2.625 C7.83277344 2.69976563 6.72804688 2.77453125 5.58984375 2.8515625 C4.73519531 2.90054688 3.88054687 2.94953125 3 3 C3 2.34 3 1.68 3 1 C2.01 0.67 1.02 0.34 0 0 Z " fill="#F5F5EF" transform="translate(415,903)"/>
<path d="M0 0 C2 1 2 1 3 2 C3 2.66 3 3.32 3 4 C1.37373596 5.38232443 -0.2925002 6.71937515 -2 8 C-2.33 7.01 -2.66 6.02 -3 5 C-3.33 5.66 -3.66 6.32 -4 7 C-4.66 7 -5.32 7 -6 7 C-4.60667426 3.63279613 -3.0210714 2.0140476 0 0 Z " fill="#F4F5F1" transform="translate(180,501)"/>
<path d="M0 0 C-0.639375 0.391875 -1.27875 0.78375 -1.9375 1.1875 C-4.43778819 3.38472296 -4.64950425 4.75791433 -5 8 C-5.99 8 -6.98 8 -8 8 C-8 7.01 -8 6.02 -8 5 C-8.99 5.495 -8.99 5.495 -10 6 C-8.20404732 1.26521567 -5.07984355 -1.69328118 0 0 Z " fill="#F2F2ED" transform="translate(814,496)"/>
<path d="M0 0 C0 3 0 3 -1.53125 4.82421875 C-2.1809375 5.43910156 -2.830625 6.05398438 -3.5 6.6875 C-4.1496875 7.31011719 -4.799375 7.93273437 -5.46875 8.57421875 C-5.9740625 9.04472656 -6.479375 9.51523437 -7 10 C-7.33 9.01 -7.66 8.02 -8 7 C-3.89473684 1.29824561 -3.89473684 1.29824561 0 0 Z " fill="#F3F3EC" transform="translate(339,265)"/>
<path d="M0 0 C0.66 0 1.32 0 2 0 C1 3 1 3 -1.28515625 4.16796875 C-2.20167969 4.50441406 -3.11820312 4.84085938 -4.0625 5.1875 C-5.44115234 5.70376953 -5.44115234 5.70376953 -6.84765625 6.23046875 C-7.55792969 6.48441406 -8.26820313 6.73835937 -9 7 C-8.67 5.68 -8.34 4.36 -8 3 C-6.865625 2.690625 -5.73125 2.38125 -4.5625 2.0625 C-1.21224901 1.37075469 -1.21224901 1.37075469 0 0 Z " fill="#F6F7EA" transform="translate(452,181)"/>
<path d="M0 0 C0.66 0.33 1.32 0.66 2 1 C1.67 1.99 1.34 2.98 1 4 C-0.32 4 -1.64 4 -3 4 C-2.67 3.01 -2.34 2.02 -2 1 C-1.34 0.67 -0.68 0.34 0 0 Z M-1 4 C-0.34 4.33 0.32 4.66 1 5 C1 5.66 1 6.32 1 7 C-0.65 7.33 -2.3 7.66 -4 8 C-4 7.34 -4 6.68 -4 6 C-3.01 5.34 -2.02 4.68 -1 4 Z " fill="#F5F6F2" transform="translate(558,732)"/>
<path d="M0 0 C1.65 0.33 3.3 0.66 5 1 C1.25 4 1.25 4 -1 4 C-1.33 4.66 -1.66 5.32 -2 6 C-2.66 5.67 -3.32 5.34 -4 5 C-2.68 3.35 -1.36 1.7 0 0 Z " fill="#F5F5F2" transform="translate(687,978)"/>
<path d="M0 0 C2.6875 0.875 2.6875 0.875 5 2 C2.66785852 3.20628008 0.50357861 4.1654738 -2 5 C-2.33 4.01 -2.66 3.02 -3 2 C-2.01 1.34 -1.02 0.68 0 0 Z " fill="#F5F5F3" transform="translate(382,212)"/>
<path d="M0 0 C0.66 0.33 1.32 0.66 2 1 C-0.31 3.31 -2.62 5.62 -5 8 C-5.33 7.01 -5.66 6.02 -6 5 C-4.02 3.35 -2.04 1.7 0 0 Z " fill="#F6F6F3" transform="translate(1011,803)"/>
<path d="" fill="#000000" transform="translate(0,0)"/>
<path d="" fill="#000000" transform="translate(0,0)"/>
<path d="" fill="#808080" transform="translate(0,0)"/>
</svg>
