<?xml version="1.0" encoding="UTF-8"?>
<svg version="1.1" xmlns="http://www.w3.org/2000/svg" width="1280" height="1280">
<path d="M0 0 C0.87237305 0.19916016 1.74474609 0.39832031 2.64355469 0.60351562 C13.82696674 3.1730955 24.85018161 6.32925264 35.875 9.5 C36.52386169 9.68559479 37.17272339 9.87118958 37.84124756 10.06240845 C49.99193896 13.54926099 61.86420614 17.68555986 73.625 22.3125 C74.36733887 22.60390869 75.10967773 22.89531738 75.87451172 23.19555664 C77.44408245 23.81262907 79.01325286 24.43072066 80.58203125 25.04980469 C83.06160324 26.02420838 85.54613149 26.98515308 88.03125 27.9453125 C97.87891587 31.77795336 107.40288786 35.93470253 116.76367188 40.83691406 C119.26490604 42.13777428 121.78027007 43.40882891 124.296875 44.6796875 C144.04274622 54.72211557 163.03832645 66.01784642 181 79 C181.64453125 79.46583496 182.2890625 79.93166992 182.953125 80.41162109 C196.47919227 90.25329947 209.54984711 100.75219954 221.87890625 112.0625 C223.88654129 113.89636184 225.93392197 115.67008275 228 117.4375 C234.96132359 123.51283695 241.3641734 130.12850244 247.36328125 137.1484375 C248.96400496 138.95928007 250.63692304 140.63408243 252.375 142.3125 C256.08020776 145.9600712 259.29659018 149.93849847 262.55078125 153.98828125 C264.23272367 156.0565071 265.92493014 158.09088572 267.66796875 160.10546875 C274.28170418 167.75051045 280.29437024 175.65645453 286 184 C286.40041504 184.58475098 286.80083008 185.16950195 287.21337891 185.77197266 C301.42226469 206.61892027 314.39434376 227.84173613 324.9609375 250.76611328 C325.9123456 252.81155127 326.88670056 254.84328492 327.875 256.87109375 C332.63027455 266.67548602 336.41813544 276.71506607 340 287 C340.46032191 288.30544086 340.92095386 289.61077243 341.38183594 290.91601562 C348.36634931 310.75685208 354.22562855 330.26774674 358 351 C358.45268343 353.35034551 358.90581516 355.70060471 359.359375 358.05078125 C363.26653967 378.87482104 365.81205832 399.99598477 366.25219727 421.19335938 C366.49422299 432.70868844 368.28086661 443.44887795 370.625 454.71875 C375.28266935 477.40741481 377.70398061 500.84545271 378 524 C378.01321289 525.0000708 378.02642578 526.0001416 378.04003906 527.03051758 C378.26822344 560.17429791 373.3129832 592.99575737 365 625 C364.78230957 625.84304688 364.56461914 626.68609375 364.34033203 627.5546875 C356.88014026 655.87981197 345.14510725 682.30901846 330.43164062 707.54052734 C329.22724912 709.60959965 328.03762357 711.68551861 326.859375 713.76953125 C323.72357009 719.27131509 320.36352059 724.50300227 316.671875 729.6484375 C315.11637559 731.83631284 313.64595141 734.0592745 312.1875 736.3125 C305.60164177 746.22631851 298.06913303 755.27040412 290 764 C288.6024859 765.56099689 287.20669212 767.1235354 285.8125 768.6875 C281.8621157 773.06833039 277.87984176 777.41896724 273.875 781.75 C273.30112549 782.37608154 272.72725098 783.00216309 272.13598633 783.6472168 C268.37576233 787.69581969 264.51648613 791.78306184 260 795 C259.34 795 258.68 795 258 795 C258 795.66 258 796.32 258 797 C255.02884138 799.76276072 251.80442166 802.2205427 248.61621094 804.72802734 C247.07363291 805.94205024 245.54046863 807.16800618 244.0078125 808.39453125 C221.33751141 826.24811442 195.61659216 841.79301383 169 853 C167.99453125 853.433125 166.9890625 853.86625 165.953125 854.3125 C157.57629425 857.79968746 149.04125172 860.74685144 140.4375 863.625 C139.32632813 863.9972168 138.21515625 864.36943359 137.0703125 864.75292969 C133.7208839 865.85989419 130.36375203 866.93739061 127 868 C125.37324341 868.52025757 125.37324341 868.52025757 123.71362305 869.05102539 C114.719669 871.78820217 105.69732606 873.4053197 96.42260742 874.81030273 C93.93556343 875.18779394 91.45119977 875.58014714 88.96679688 875.97460938 C77.75279986 877.73032949 66.6950918 879.15513694 55.31640625 878.89453125 C39.72018421 878.32887399 39.72018421 878.32887399 26.6875 885.8125 C25.19427908 887.36716649 23.7580666 888.95164704 22.34619141 890.58032227 C20.19859292 892.84515455 17.63346283 894.34947298 15 896 C12.74052658 897.63457075 10.49137122 899.27860634 8.25 900.9375 C6.92220724 901.91451418 5.59406697 902.89105623 4.265625 903.8671875 C3.57146484 904.37733398 2.87730469 904.88748047 2.16210938 905.41308594 C-9.38497197 913.88824727 -21.02528321 922.14050227 -33 930 C-35.58630162 931.7038778 -38.1695229 933.41231422 -40.75 935.125 C-41.37205322 935.53782227 -41.99410645 935.95064453 -42.63500977 936.37597656 C-47.39896063 939.55657534 -52.041263 942.88281149 -56.6328125 946.30859375 C-59 948 -59 948 -61.33862305 949.39770508 C-63.93877727 950.96314056 -66.44326309 952.61655122 -68.94921875 954.328125 C-69.88056641 954.96363281 -70.81191406 955.59914063 -71.77148438 956.25390625 C-72.73376953 956.91261719 -73.69605469 957.57132813 -74.6875 958.25 C-75.63044922 958.89324219 -76.57339844 959.53648437 -77.54492188 960.19921875 C-89.32672128 968.24778216 -89.32672128 968.24778216 -100.875 976.625 C-150.27700062 1012.61089861 -150.27700062 1012.61089861 -178.69921875 1008.62109375 C-184.58198381 1007.41801619 -184.58198381 1007.41801619 -187 1005 C-189.69380168 1004.93206421 -192.31229985 1004.96351873 -195 1005.0625 C-206.51649322 1005.23717484 -214.45376917 1003.14718503 -223 995 C-226.55953633 991.18621107 -227.8091199 987.99342399 -229 982.9375 C-230.17489473 978.08364197 -231.50849525 973.44102512 -233.25 968.75 C-237.0415426 957.39047795 -234.73172204 946.74905464 -230 936 C-222.82440504 923.19107596 -211.39281204 913.51398932 -199 906 C-198.26982666 905.55350098 -197.53965332 905.10700195 -196.78735352 904.64697266 C-190.64057825 900.91537011 -184.38777719 897.41858753 -178.0625 894 C-177.15048828 893.505 -176.23847656 893.01 -175.29882812 892.5 C-171.60231992 890.49369732 -167.90525874 888.48847455 -164.20385742 886.49121094 C-158.12368792 883.19794142 -152.12069402 879.8013803 -146.1875 876.25 C-145.33019287 875.73703369 -144.47288574 875.22406738 -143.58959961 874.69555664 C-137.11141719 870.77281533 -130.93348385 866.56195828 -124.84765625 862.05859375 C-122 860 -122 860 -119.37109375 858.47265625 C-116.83551838 856.89784255 -115.07422173 855.13804393 -113 853 C-110.24812481 850.70137484 -107.45307203 848.46235448 -104.65625 846.21875 C-102.29752242 844.24851873 -100.13088482 842.21129556 -98 840 C-98.70125 839.75121094 -99.4025 839.50242187 -100.125 839.24609375 C-110.94070705 834.55830768 -120.20070791 825.67746999 -129 818 C-129.77472656 817.34902344 -130.54945313 816.69804688 -131.34765625 816.02734375 C-136.04964314 812.05013326 -140.08207578 807.74638397 -144 803 C-144.62648438 802.24976563 -145.25296875 801.49953125 -145.8984375 800.7265625 C-154.20392713 790.58270362 -161.79106096 780.08895389 -167 768 C-167.48726562 766.87207031 -167.97453125 765.74414062 -168.4765625 764.58203125 C-173.3557852 751.86606817 -174.62110567 736.7379562 -169 724 C-168.70996094 723.29875 -168.41992188 722.5975 -168.12109375 721.875 C-163.64305999 711.98210533 -155.80339293 704.70885717 -145.75 700.6875 C-133.59417283 696.66918369 -122.20207035 697.6938494 -110.546875 702.70703125 C-102.08252551 707.00411665 -95.49007311 713.25252887 -88.8125 719.875 C-88.14001221 720.54184814 -87.46752441 721.20869629 -86.7746582 721.89575195 C-82 726.74357074 -82 726.74357074 -82 729 C-81.41476562 729.25007812 -80.82953125 729.50015625 -80.2265625 729.7578125 C-77.70467294 731.16476141 -76.24913938 732.68712804 -74.375 734.875 C-73.78460937 735.55304687 -73.19421875 736.23109375 -72.5859375 736.9296875 C-71.08681913 738.88666469 -70.01430932 740.76048537 -69 743 C-68.34 743 -67.68 743 -67 743 C-65.64613064 744.65002828 -64.31321858 746.3174387 -63 748 C-62.34 748.33 -61.68 748.66 -61 749 C-61.11418485 745.2704256 -61.2436199 741.54150506 -61.375 737.8125 C-61.4059375 736.79607422 -61.436875 735.77964844 -61.46875 734.73242188 C-62.12627617 716.70524615 -64.43830004 698.84828268 -66.9375 681 C-67.19244822 679.15369977 -67.44700583 677.30734557 -67.70117188 675.4609375 C-69.42551661 662.96800824 -71.20744047 650.48329839 -73 638 C-73.6353064 638.79748657 -73.6353064 638.79748657 -74.28344727 639.61108398 C-87.29494456 655.68484329 -109.11562758 664.29743005 -127.9921875 671.4375 C-136.34158117 674.6504752 -144.55975426 678.20689699 -152.80957031 681.66503906 C-155.92042573 682.966704 -159.03384003 684.26200496 -162.1484375 685.5546875 C-171.93120021 689.61573934 -181.70122062 693.70355215 -191.4375 697.875 C-192.27112061 698.23215088 -193.10474121 698.58930176 -193.96362305 698.95727539 C-197.82669561 700.61791474 -201.67985218 702.29765069 -205.51953125 704.01171875 C-209.25789414 705.67899688 -213.01644123 707.29291904 -216.78466797 708.89135742 C-225.89780038 712.75843728 -234.94719695 716.7557511 -243.97003174 720.82803345 C-253.56244439 725.15585245 -263.13842973 729.45589492 -272.97167969 733.21630859 C-275.48027108 734.18556453 -277.97803858 735.18086513 -280.4765625 736.17578125 C-291.22848751 740.44519991 -301.9645763 744.51705896 -313 748 C-314.29065753 748.42228277 -315.5810137 748.84548755 -316.87109375 749.26953125 C-342.55943151 757.62870967 -373.590154 765.15562088 -399.34375 753.46484375 C-406.50979143 749.51298267 -409.93610778 743.85249464 -413.5859375 736.69921875 C-414.84641391 734.29317124 -416.22112817 732.11466312 -417.75 729.875 C-422.15830834 722.92943381 -422.84115867 714.78676626 -421.67578125 706.76953125 C-418.32650919 692.20851159 -406.82779902 682.02494458 -395 674 C-394.3615918 673.56123535 -393.72318359 673.1224707 -393.06542969 672.67041016 C-380.30498316 664.04278708 -366.37814358 657.85668462 -352.38232422 651.53710938 C-347.47859833 649.30859355 -342.61046344 647.00858415 -337.75 644.6875 C-336.90469727 644.28426514 -336.05939453 643.88103027 -335.18847656 643.46557617 C-328.01627627 640.03119022 -320.89776972 636.49405622 -313.80029297 632.90820312 C-310.87102226 631.43045875 -307.93521695 629.96589598 -305 628.5 C-304.030625 628.0153125 -303.06125 627.530625 -302.0625 627.03125 C-301.381875 626.6909375 -300.70125 626.350625 -300 626 C-301.70542969 625.68869141 -301.70542969 625.68869141 -303.4453125 625.37109375 C-317.53718585 622.6302834 -331.36213147 618.3976492 -341 607 C-344.3356553 601.81566827 -346.14995938 597.10966699 -347 591 C-347.53665283 591.19634033 -348.07330566 591.39268066 -348.6262207 591.5949707 C-380.6087483 603.14997032 -417.79104408 606.65229441 -449.6171875 591.91796875 C-452.36070298 590.86104066 -454.07575553 590.72183883 -457 591 C-459.18226091 592.25362117 -459.18226091 592.25362117 -461.1875 594.05859375 C-465.9622294 597.98648062 -470.92378913 601.53648584 -476 605.0625 C-476.83789062 605.64837891 -477.67578125 606.23425781 -478.5390625 606.83789062 C-515.55524528 632.65180757 -515.55524528 632.65180757 -529.58203125 632.46875 C-534.22063286 631.56950575 -537.1029987 628.58025632 -540 625 C-541.5291633 622.40042239 -542.26230979 619.91036499 -543 617 C-543.26659424 615.96238525 -543.26659424 615.96238525 -543.53857422 614.90380859 C-545.65083677 605.16182189 -545.30275102 595.28857508 -545.25 585.375 C-545.24734131 583.94102875 -545.24734131 583.94102875 -545.24462891 582.47808838 C-545.22014734 571.23516607 -545.02230001 560.07718024 -544 548.875 C-543.86827393 547.41634521 -543.86827393 547.41634521 -543.73388672 545.92822266 C-543.56758606 544.1216358 -543.40018241 542.31514998 -543.23144531 540.50878906 C-542.16558501 528.95522322 -541.79314756 521.17636527 -548.78125 511.2109375 C-559.95239996 495.04423809 -565.26587691 474.20195679 -568 455 C-568.26490234 453.64841797 -568.26490234 453.64841797 -568.53515625 452.26953125 C-569.25009447 447.24093219 -569.37198993 442.19694034 -569.5625 437.125 C-569.60568359 436.05507813 -569.64886719 434.98515625 -569.69335938 433.8828125 C-569.79892817 431.25532246 -569.90103791 428.62774578 -570 426 C-571.47146484 425.27296875 -571.47146484 425.27296875 -572.97265625 424.53125 C-582.40631405 419.8539196 -591.78254936 415.0919563 -601 410 C-601.63325195 409.65356445 -602.26650391 409.30712891 -602.91894531 408.95019531 C-615.70345462 401.8893218 -630.14361777 392.56914668 -635 378 C-636.21461081 369.03647974 -633.95560307 362.45246462 -629 355 C-617.78799662 340.41900522 -602.56285141 331.38910903 -586.5625 322.875 C-585.75361328 322.44324463 -584.94472656 322.01148926 -584.11132812 321.56665039 C-580.41717179 319.63449964 -576.78134252 317.84406275 -572.84765625 316.453125 C-566.14934634 314.25576612 -566.14934634 314.25576612 -561.3125 309.4609375 C-560.50485222 307.44713153 -559.77250532 305.4018435 -559.109375 303.3359375 C-552.96358222 284.85527892 -537.76929717 270.3893569 -524.2578125 257.15234375 C-523.51305664 256.41741699 -522.76830078 255.68249023 -522.00097656 254.92529297 C-520.4497951 253.43278235 -518.82737079 252.01414691 -517.1796875 250.62890625 C-513.81230687 246.5675314 -512.62166398 241.97076848 -511 237 C-510.06616957 234.31057534 -509.11155778 231.62856303 -508.16015625 228.9453125 C-507.64853636 227.49107956 -507.13747687 226.03664936 -506.62695312 224.58203125 C-506.36922119 223.84807129 -506.11148926 223.11411133 -505.84594727 222.35791016 C-505.32496394 220.87305087 -504.80445367 219.38802552 -504.28442383 217.90283203 C-499.27344646 203.59793668 -494.11490271 189.65655976 -487.12548828 176.18164062 C-485.96179906 173.92595149 -484.8221083 171.65911169 -483.68359375 169.390625 C-478.25551992 158.69419137 -472.13195691 148.70884933 -465.29101562 138.859375 C-464.22960539 137.33068734 -463.18303078 135.79170939 -462.140625 134.25 C-453.83283439 122.07620783 -444.80819755 110.47728332 -434.6484375 99.80078125 C-432.43626474 97.46135961 -430.3272497 95.08292216 -428.25 92.625 C-425.4189819 89.34842215 -422.32444323 86.56854197 -419.0234375 83.7734375 C-416.97191028 81.97538083 -415.08480459 80.0842574 -413.1875 78.125 C-393.47792727 58.18490595 -367.75062961 42.88309443 -343 30 C-341.27330078 29.07960938 -341.27330078 29.07960938 -339.51171875 28.140625 C-311.53232412 13.47275163 -280.79659092 3.63951122 -250 -3 C-249.13358887 -3.18900879 -248.26717773 -3.37801758 -247.37451172 -3.57275391 C-241.60112423 -4.81931914 -235.81080593 -5.94259516 -230 -7 C-229.09475586 -7.16741699 -228.18951172 -7.33483398 -227.25683594 -7.50732422 C-214.10094982 -9.90073363 -200.93775993 -11.52127689 -187.625 -12.6875 C-186.93541199 -12.74825714 -186.24582397 -12.80901428 -185.53533936 -12.87161255 C-123.51096707 -18.25236333 -60.67396326 -14.18874397 0 0 Z M-160.5 -1.1875 C-161.15752258 -1.14298706 -161.81504517 -1.09847412 -162.49249268 -1.0526123 C-167.32994477 -0.72257931 -172.1651756 -0.36632704 -177 0 C-178.29131836 0.09651855 -179.58263672 0.19303711 -180.91308594 0.29248047 C-215.33919087 2.96596911 -250.2263558 8.96728809 -283 20 C-284.71123047 20.52980469 -284.71123047 20.52980469 -286.45703125 21.0703125 C-310.74831178 28.72996656 -334.40092327 39.52960806 -356 53 C-357.62363226 53.93986676 -359.24850027 54.87760435 -360.875 55.8125 C-372.58851588 62.8523426 -383.60996249 71.14756861 -394 80 C-395.07220227 80.88758245 -396.14515914 81.77425389 -397.21875 82.66015625 C-403.91919148 88.23813061 -410.26847676 94.08816091 -416.4375 100.25 C-417.0874292 100.89912354 -417.7373584 101.54824707 -418.40698242 102.21704102 C-422.79436206 106.65511575 -426.9384433 111.26342063 -431 116 C-431.74987183 116.8672168 -431.74987183 116.8672168 -432.51489258 117.75195312 C-433.91207372 119.37101852 -435.30083962 120.99692105 -436.6875 122.625 C-437.14705078 123.15867187 -437.60660156 123.69234375 -438.08007812 124.2421875 C-440.99986277 127.67428814 -443.54686134 131.21064028 -446 135 C-447.11965288 136.60790333 -448.244462 138.21223142 -449.375 139.8125 C-454.21638904 146.71692205 -458.91659492 153.61849662 -463 161 C-463.35521729 161.63413818 -463.71043457 162.26827637 -464.07641602 162.92163086 C-467.43191679 168.92229314 -470.67708849 174.97655212 -473.875 181.0625 C-474.36613281 181.98482422 -474.85726562 182.90714844 -475.36328125 183.85742188 C-482.74113551 197.91367149 -488.3294847 212.2853517 -493.1875 227.375 C-502.07731572 254.78173408 -502.07731572 254.78173408 -507 259.9375 C-507.78375 260.76121094 -508.5675 261.58492188 -509.375 262.43359375 C-512.69217605 265.67672569 -516.11120564 268.79271764 -519.55224609 271.90307617 C-526.84447109 278.53015553 -532.92767739 285.60366061 -538.4375 293.75 C-538.86305176 294.37616211 -539.28860352 295.00232422 -539.72705078 295.64746094 C-542.13838644 299.31862434 -543.80104677 302.72831963 -545 307 C-544.46109131 306.87359131 -543.92218262 306.74718262 -543.36694336 306.61694336 C-540.8932273 306.04433127 -538.41559812 305.49082626 -535.9375 304.9375 C-535.08994141 304.73833984 -534.24238281 304.53917969 -533.36914062 304.33398438 C-528.18455418 303.192975 -524.2016988 302.87778818 -519 304 C-518.25 307.25 -518.25 307.25 -518 311 C-520.17931505 314.20105355 -522.28662025 315.25489731 -525.94921875 316.0546875 C-527.52674537 316.33888416 -529.10635366 316.61168609 -530.6875 316.875 C-550.59080598 320.65055079 -570.57114887 328.71697784 -588 339 C-589.20257439 339.67416022 -590.40574205 340.34726279 -591.609375 341.01953125 C-603.30145409 347.65509662 -614.70092207 355.71877888 -621 368 C-621.88646338 371.23642762 -622.34561919 373.12543318 -621.1015625 376.2734375 C-614.65158135 385.4535694 -606.71071984 391.63717005 -596.9375 397 C-596.02137939 397.51272461 -595.10525879 398.02544922 -594.16137695 398.55371094 C-586.85504346 402.61016794 -579.44147954 406.41742839 -571.92382812 410.06445312 C-565.92008986 412.98403752 -559.95569255 415.98386292 -554 419 C-553.34580078 419.33 -552.69160156 419.66 -552.01757812 420 C-525.19455511 433.61088977 -525.19455511 433.61088977 -519 446 C-518.6875 448.9375 -518.6875 448.9375 -519 452 C-520.6875 453.9375 -520.6875 453.9375 -523 455 C-526.53544161 454.83528725 -527.79161311 454.2025217 -530.359375 451.70703125 C-531.54273438 450.27423828 -531.54273438 450.27423828 -532.75 448.8125 C-538.55155298 442.15625394 -544.85970428 437.48869816 -553 434 C-553.99 434 -554.98 434 -556 434 C-555.24817536 462.68210998 -548.22661737 493.12498357 -530 516 C-529.35160156 516.83660156 -528.70320313 517.67320312 -528.03515625 518.53515625 C-526.05664865 521.0529116 -524.04201992 523.53356026 -522 526 C-521.34257813 526.7940625 -520.68515625 527.588125 -520.0078125 528.40625 C-517.59423724 531.2876401 -517.59423724 531.2876401 -515 534 C-514.34 534 -513.68 534 -513 534 C-510.84 540.24 -510.84 540.24 -511.5 543.375 C-513 545 -513 545 -515.8125 546 C-519.86584893 546 -521.07891984 544.67765681 -524 542 C-524.66 542 -525.32 542 -526 542 C-526.433125 541.0409375 -526.433125 541.0409375 -526.875 540.0625 C-527.82823451 537.84793921 -527.82823451 537.84793921 -530 537 C-531.17543949 553.93445666 -532.19592602 570.83195469 -532.1875 587.8125 C-532.1884668 589.69509521 -532.1884668 589.69509521 -532.18945312 591.61572266 C-532.15933905 596.56195931 -532.1096734 601.16226674 -531 606 C-527.69505154 602.97833284 -525.64125396 599.88393787 -523.4375 596 C-515.27451262 582.20966177 -502.3898937 569.19494685 -488 562 C-483.08273389 561.28289869 -480.64802717 561.98610328 -476.4765625 564.6796875 C-462.56685404 573.29367301 -446.86067923 579.97623162 -431 584 C-430.29166016 584.19174805 -429.58332031 584.38349609 -428.85351562 584.58105469 C-395.34685739 593.51907971 -360.547613 585.85642161 -330.92675781 568.80664062 C-313.83286416 558.82704717 -313.83286416 558.82704717 -300 545 C-299.236875 544.2575 -298.47375 543.515 -297.6875 542.75 C-287.19230922 532.13520912 -287.19230922 532.13520912 -281 519 C-286.16726688 519.6353197 -289.84417661 520.64827434 -293.3046875 524.6953125 C-294.65243342 526.7652468 -295.95741732 528.86387026 -297.2109375 530.9921875 C-301.53974122 538.26987061 -301.53974122 538.26987061 -305 540 C-308 540.1875 -308 540.1875 -311 540 C-313 538 -313 538 -313.3359375 535.1953125 C-312.94101926 531.43899711 -311.90675413 529.84593701 -309.625 526.875 C-307.44110966 523.99010782 -305.50461212 521.29798819 -304 518 C-304.70576172 517.41992188 -304.70576172 517.41992188 -305.42578125 516.828125 C-313.81242673 509.81320828 -313.81242673 509.81320828 -314.375 504.375 C-314.25125 503.26125 -314.1275 502.1475 -314 501 C-311 499 -311 499 -308.0859375 499.0859375 C-304.33068631 500.19825241 -303.10717614 501.64454315 -300.625 504.625 C-297.70580252 507.84966305 -297.70580252 507.84966305 -293.85546875 509.546875 C-289.75556426 509.20194996 -286.27070243 507.55535664 -283.25 504.70703125 C-280.68600658 501.20557773 -279.85971574 497.19111421 -279 493 C-278.8453125 492.30003906 -278.690625 491.60007812 -278.53125 490.87890625 C-276.62625974 479.4273171 -279.2239922 466.35237842 -285.53515625 456.63671875 C-290.47482351 449.94172554 -296.18049932 444.51956288 -303.4375 440.4375 C-306.43772029 438.65151425 -306.88046794 438.3320335 -308.125 434.875 C-308 432 -308 432 -306 429 C-300.50259075 428.01831978 -297.66119949 428.85767492 -293.0625 432 C-291.35431219 433.30672432 -289.66672156 434.64078211 -288 436 C-287.19949219 436.63679688 -286.39898437 437.27359375 -285.57421875 437.9296875 C-280.27816938 442.36234731 -276.37730909 446.98171375 -273 453 C-272.5359375 453.82113281 -272.071875 454.64226562 -271.59375 455.48828125 C-268.15367596 462.23842654 -267.14483716 468.46522416 -266.45703125 475.91015625 C-266.2991266 479.09822733 -266.2991266 479.09822733 -264 481 C-259.12735181 462.38648392 -255.25038855 443.79798196 -264.68359375 425.78515625 C-268.27603714 420.02952114 -272.13733578 414.30867854 -277.4375 410 C-290.09788501 399.4006079 -299.64219137 386.45306946 -308.25 372.5 C-308.90822754 371.44208252 -309.56645508 370.38416504 -310.24462891 369.29418945 C-313.145438 364.62956647 -316.0319132 359.95701707 -318.8828125 355.26171875 C-323.74676914 347.28657428 -328.89187728 340.09445382 -335 333 C-335.67417969 332.13761719 -336.34835937 331.27523438 -337.04296875 330.38671875 C-338.74377358 328.31248372 -340.36666834 326.68344745 -342.4375 325 C-344.53025763 323.29083367 -346.41572423 321.57086531 -348.30078125 319.625 C-351.26897195 316.7384238 -354.37100346 314.37533876 -357.75 312 C-358.37197266 311.56067139 -358.99394531 311.12134277 -359.63476562 310.66870117 C-364.26917736 307.43291447 -368.95894078 304.56253844 -374 302 C-375.37671875 301.24009766 -375.37671875 301.24009766 -376.78125 300.46484375 C-385.76764511 295.67718907 -395.04079887 292.37542552 -404.73242188 289.28417969 C-405.78623047 288.93000977 -406.84003906 288.57583984 -407.92578125 288.2109375 C-408.87880127 287.90462402 -409.83182129 287.59831055 -410.8137207 287.28271484 C-413 286 -413 286 -413.87573242 283.50634766 C-414.01542795 280.68883438 -413.48577745 279.35976418 -412 277 C-387.63075371 275.01067377 -359.02560542 293.54080352 -341.1875 308.5625 C-334.40090296 314.39418899 -328.36767767 320.1239284 -323.26171875 327.49609375 C-322.63716797 328.24052734 -322.63716797 328.24052734 -322 329 C-321.34 329 -320.68 329 -320 329 C-319.73477539 329.5578418 -319.46955078 330.11568359 -319.19628906 330.69042969 C-317.88664674 333.2188412 -316.40712769 335.56293599 -314.859375 337.953125 C-312.25254182 342.01568715 -309.70242248 346.10476654 -307.203125 350.234375 C-298.43069826 364.8000264 -298.43069826 364.8000264 -288.8125 378.8125 C-288.39194336 379.38516602 -287.97138672 379.95783203 -287.53808594 380.54785156 C-284.93970245 383.98781674 -282.09759487 387.00838816 -279 390 C-278.16984375 390.83402344 -277.3396875 391.66804688 -276.484375 392.52734375 C-274.88543672 394.11873987 -273.2718392 395.69561056 -271.640625 397.25390625 C-256.41729656 411.95486558 -247.14668568 427.79461071 -246.75854492 449.23876953 C-246.64299285 478.97196772 -257.92982975 512.37886241 -276 536 C-277.39705803 537.95745984 -278.79286717 539.91581155 -280.1875 541.875 C-282.09095237 544.53440596 -283.90185592 546.90374001 -286.23828125 549.1953125 C-288.23284557 550.81818922 -288.23284557 550.81818922 -288 553 C-288.556875 553.226875 -289.11375 553.45375 -289.6875 553.6875 C-292.64177998 555.3642535 -294.60632533 557.58900496 -297 560 C-307.31787594 569.30126169 -318.47160504 576.44558629 -330.953125 582.578125 C-333.11310062 583.8206283 -333.11310062 583.8206283 -333.8671875 585.8984375 C-334.20224917 591.20029574 -331.69714765 595.96423778 -328.8125 600.25 C-318.23282898 610.59456722 -302.83318012 613.36271164 -288.43310547 613.45092773 C-267.52290256 612.9817466 -245.67256793 604.46867859 -229 592 C-227.87755692 591.20135847 -226.75372352 590.40466921 -225.62890625 589.609375 C-212.75867104 580.4354995 -200.99653489 570.35062725 -190 559 C-188.33580064 557.33086968 -186.66942376 555.663905 -185 554 C-184.2575 553.2575 -183.515 552.515 -182.75 551.75 C-181.07287572 550.07287572 -179.38636193 548.40498838 -177.68359375 546.75390625 C-176.85988281 545.94824219 -176.03617188 545.14257812 -175.1875 544.3125 C-174.39730469 543.54550781 -173.60710937 542.77851562 -172.79296875 541.98828125 C-170.77677004 540.1986717 -170.77677004 540.1986717 -171 538 C-170.34 538 -169.68 538 -169 538 C-167.41466298 536.28667246 -165.90458785 534.50310953 -164.4375 532.6875 C-163.63183594 531.70136719 -162.82617188 530.71523438 -161.99609375 529.69921875 C-159.86356007 527.10704378 -159.86356007 527.10704378 -159 524 C-158.34 524 -157.68 524 -157 524 C-155.62113082 522.232219 -154.25647399 520.45246288 -152.94140625 518.63671875 C-151.13195115 516.1792093 -149.25999931 513.7824842 -147.35888672 511.39550781 C-136.50478246 497.7527997 -126.1148517 483.85528893 -117.14697266 468.89111328 C-116.0137134 467.02261047 -114.84653858 465.18003217 -113.66796875 463.33984375 C-104.77655882 449.29562858 -98.61588391 434.2204058 -95 418 C-94.80921875 417.22527344 -94.6184375 416.45054687 -94.421875 415.65234375 C-90.18899062 389.0400429 -99.38707122 364.74679952 -114 343 C-115.8715273 340.09428493 -117.71767113 337.17271982 -119.5625 334.25 C-120.07216309 333.4441748 -120.58182617 332.63834961 -121.10693359 331.80810547 C-125.72023482 324.4917756 -130.218854 317.10785374 -134.70385742 309.71240234 C-138.72804309 303.07930018 -142.78640247 296.46858754 -146.875 289.875 C-147.41439209 289.00472168 -147.95378418 288.13444336 -148.50952148 287.23779297 C-150.42440111 284.14943051 -152.33995793 281.06149512 -154.25878906 277.97558594 C-156.52574893 274.32890408 -158.7684273 270.66841078 -161 267 C-161.5259375 266.17371094 -162.051875 265.34742188 -162.59375 264.49609375 C-165.71683123 259.36903539 -166.54609937 256.00709309 -166 250 C-162.8125 249.1875 -162.8125 249.1875 -159 249 C-155.34927651 252.10279641 -152.88706731 255.45901232 -150.4765625 259.5703125 C-149.8475 260.6325 -149.2184375 261.6946875 -148.5703125 262.7890625 C-147.92835938 263.88992188 -147.28640625 264.99078125 -146.625 266.125 C-145.34783463 268.29514279 -144.06919769 270.46442024 -142.7890625 272.6328125 C-142.1604834 273.69757813 -141.5319043 274.76234375 -140.88427734 275.859375 C-138.01898924 280.63510267 -135.01217875 285.31613124 -132 290 C-127.07325563 297.7768974 -122.21518386 305.59291895 -117.5 313.5 C-114.38555803 318.72078463 -111.22103365 323.90673847 -108 329.0625 C-107.58395508 329.72934814 -107.16791016 330.39619629 -106.73925781 331.08325195 C-104.72222551 334.30226285 -102.6805905 337.50010833 -100.578125 340.6640625 C-84.58459332 364.7804501 -78.27389414 391.12228964 -82.5390625 419.7421875 C-84.06704423 430.54165161 -81.39300756 437.93037038 -75.0625 446.75 C-73.71909753 448.50827676 -72.36611198 450.25930893 -71 452 C-70.566875 452.5878125 -70.13375 453.175625 -69.6875 453.78125 C-66.18411751 458.35511047 -61.59922347 461.61320799 -57 465 C-54.12408641 462.12408641 -53.10565464 458.53268694 -51.625 454.8125 C-48.4191442 446.99372761 -44.83170444 439.43656571 -40.9375 431.9375 C-40.21457764 430.530448 -40.21457764 430.530448 -39.47705078 429.0949707 C-36.53743422 423.50831309 -33.27664659 418.33687445 -29.59106445 413.21264648 C-27.67820984 410.55249591 -25.90195062 407.81479907 -24.125 405.0625 C-16.94196282 394.25334385 -8.35589073 384.06888906 1 375.0625 C3.21548272 373.07588833 3.21548272 373.07588833 4 370 C5.32338632 369.31379969 6.65949948 368.65213539 8 368 C10.9760474 365.65715417 13.65941366 363.35219065 16.29296875 360.62890625 C19.13826933 357.86572112 22.1423628 355.52770663 25.375 353.25 C25.98150391 352.82025879 26.58800781 352.39051758 27.21289062 351.94775391 C33.32596786 347.67643712 39.66494862 343.8347028 46.11669922 340.10107422 C48.04101788 338.97601884 49.94485668 337.8211783 51.84765625 336.66015625 C53.08561136 335.91872601 54.32388081 335.1778203 55.5625 334.4375 C56.65691406 333.77621094 57.75132812 333.11492187 58.87890625 332.43359375 C62.25188327 330.88430393 64.33496597 330.57285215 68 331 C69.875 332.625 69.875 332.625 71 335 C71.1875 338.25 71.1875 338.25 71 341 C70.29617188 341.268125 69.59234375 341.53625 68.8671875 341.8125 C46.03345296 351.26952357 26.50616908 367.97040959 9 385 C8.39099854 385.5885376 7.78199707 386.1770752 7.15454102 386.78344727 C3.35939246 390.50340357 -0.0728108 394.3522478 -3.3125 398.5625 C-4.01342773 399.46802612 -4.01342773 399.46802612 -4.72851562 400.3918457 C-6.16129317 402.25460153 -7.58251013 404.12559215 -9 406 C-9.42716309 406.56106445 -9.85432617 407.12212891 -10.29443359 407.70019531 C-47.04544473 456.30868951 -63.21021666 518.18065479 -62.70336533 578.45880127 C-62.68716132 580.6074085 -62.68058785 582.75587973 -62.67593384 584.90454102 C-62.59614754 611.25242673 -60.23237588 636.98439662 -56 663 C-55.58484049 665.60098392 -55.17229529 668.20236686 -54.76094055 670.80395508 C-54.50872656 672.39576208 -54.25458213 673.98726514 -53.99797058 675.57836914 C-53.00139902 681.80169546 -52.21674956 688.03861204 -51.46875 694.296875 C-51.03092448 697.75569663 -50.5025201 701.18502466 -49.9375 704.625 C-47.84702981 718.10782389 -47.78548319 731.64464592 -47.75976562 745.2578125 C-47.75003994 748.36224979 -47.71890597 751.46602895 -47.6875 754.5703125 C-47.62612994 766.09960047 -48.24471934 776.77710606 -51 788 C-51.19352051 788.8151709 -51.38704102 789.6303418 -51.58642578 790.47021484 C-57.55089634 813.7950541 -71.18891939 832.21643344 -88 849 C-88.50402344 849.53882813 -89.00804687 850.07765625 -89.52734375 850.6328125 C-95.37784558 856.82364824 -102.23208706 861.86870404 -109 867 C-109.62003906 867.47018555 -110.24007813 867.94037109 -110.87890625 868.42480469 C-126.46542952 880.17977657 -143.03369366 891.27253442 -160.625 899.8125 C-196.39408933 916.79580875 -196.39408933 916.79580875 -220 947 C-219.67 947.66 -219.34 948.32 -219 949 C-217.45833358 947.62514468 -217.45833358 947.62514468 -216 946 C-216 945.34 -216 944.68 -216 944 C-215.484375 943.773125 -214.96875 943.54625 -214.4375 943.3125 C-212.28731249 942.15470673 -210.60270772 940.92998169 -208.6875 939.4375 C-205.18847294 936.91459637 -202.40497621 935.91688724 -198 936 C-195.5 937.625 -195.5 937.625 -194 940 C-194.01953125 942.3515625 -194.01953125 942.3515625 -195 945 C-197.03975052 946.76253121 -198.97594116 948.24399331 -201.1875 949.75 C-209.40893375 955.71998105 -215.06233242 962.76326562 -217 973 C-217.46108292 978.79647098 -215.44297885 982.86456538 -211.80859375 987.30078125 C-207.91501946 990.958891 -203.72031406 991.90784032 -198.5 992.1875 C-197.2625 992.0946875 -197.2625 992.0946875 -196 992 C-195.98582031 991.34515625 -195.97164062 990.6903125 -195.95703125 990.015625 C-195.21144751 975.74877934 -189.03153273 966.5346147 -179 957 C-175.54754176 954.69836118 -174.05261287 954.65509678 -170 955 C-168 957 -168 957 -167.4375 959.625 C-168.2897985 964.73879099 -171.52884651 967.31399756 -175 971 C-181.04624335 977.60430402 -181.04624335 977.60430402 -183 986 C-182.35370018 990.23685438 -181.92713044 992.28147391 -178.5 994.9375 C-166.08089731 998.70758475 -153.36449795 993.50959459 -142.37207031 987.68115234 C-127.18593881 979.27631164 -113.03814952 969.16879027 -99 959 C-91.2075291 953.36459146 -83.35961393 947.85281663 -75.33764648 942.54785156 C-70.91968049 939.62456408 -66.56736063 936.62014309 -62.23828125 933.56640625 C-58.00482405 930.60372504 -53.68505693 927.76991613 -49.37109375 924.92626953 C-40.70104219 919.20737014 -32.16706298 913.33963075 -23.74707031 907.25878906 C-21.37119073 905.54693396 -18.98606339 903.84820036 -16.60083008 902.14941406 C-14.26149126 900.48233575 -11.92569867 898.81033186 -9.59033203 897.13769531 C-8.1648696 896.11794479 -6.73689383 895.10170969 -5.30859375 894.0859375 C10.87240384 882.47514534 26.62132176 870.11469797 41.21875 856.5625 C43.50787222 854.4534211 45.82475164 852.40021288 48.1875 850.375 C67.6308119 833.39235621 75.79489159 814.209808 80.55541992 789.36499023 C85.61649881 763.03065337 95.20480019 736.87154365 117.625 720.4375 C133.96083062 709.58014916 152.35554682 702.80810888 170.5 695.625 C174.72701293 693.9444932 178.85451725 692.22584575 182.87890625 690.10546875 C184.57782176 689.22003028 186.29933097 688.37799769 188.02734375 687.55078125 C225.44696259 669.49339488 255.60540381 641.05270601 273.6875 603.6328125 C275 601 275 601 276 600 C279.5 600.3125 279.5 600.3125 283 601 C284.74856537 604.49713074 284.55190078 608.2106413 283.40722656 611.921875 C282.55346817 613.99159231 281.61749967 615.99309529 280.625 618 C280.26704346 618.73766602 279.90908691 619.47533203 279.5402832 620.23535156 C273.66403569 632.01053968 266.09972648 642.32576264 257.4453125 652.1953125 C256.63835938 653.12085938 255.83140625 654.04640625 255 655 C254.29875 655.79792969 253.5975 656.59585938 252.875 657.41796875 C250.64759426 660.48529207 249.27787773 663.69671865 247.875 667.1875 C242.41286656 680.17827404 235.59419934 692.8038871 227 704 C226.06414062 705.22203125 226.06414062 705.22203125 225.109375 706.46875 C191.89116532 748.84158439 145.81202693 775.18627291 94 788 C93.00815459 791.94982684 92.02405486 795.90014203 91.0703125 799.859375 C86.15010439 820.23902711 79.59579978 838.24721642 64 853 C63.195625 853.825 62.39125 854.65 61.5625 855.5 C59.66365524 857.35253147 57.81292181 858.98057068 55.75 860.625 C52.79262734 862.76996366 52.79262734 862.76996366 52 866 C74.97488842 865.23063307 96.70002991 861.52101611 119 856 C120.43741595 855.65589873 121.87490397 855.31209818 123.3125 854.96875 C132.67146544 852.62900864 141.61440147 849.36239247 150.60791016 845.91015625 C152.91235276 845.03334853 155.22542352 844.18521268 157.54296875 843.34375 C174.38684724 837.14188917 189.75428472 828.38936369 205 819 C205.84175781 818.50242187 206.68351563 818.00484375 207.55078125 817.4921875 C218.54716074 810.79263891 228.76288559 802.7847379 239 795 C239.93714844 794.29230469 240.87429688 793.58460938 241.83984375 792.85546875 C245.86291726 789.7829384 249.42568665 786.59609803 253 783 C254.61148434 781.39924129 256.22347696 779.79899413 257.8359375 778.19921875 C259.68236349 776.36205135 261.52871546 774.52480955 263.375 772.6875 C264.29539062 771.77548828 265.21578125 770.86347656 266.1640625 769.92382812 C271.32589972 764.78042604 276.28588943 759.55564404 281 754 C281.90026291 752.96676886 282.80125791 751.93417496 283.703125 750.90234375 C302.80663407 728.6637496 319.08809824 703.64423433 331.13134766 676.90478516 C331.89951935 675.22033446 332.70305395 673.55210853 333.51171875 671.88671875 C341.80847791 654.72492926 348.09046038 636.40076527 353 618 C353.2160791 617.19046875 353.4321582 616.3809375 353.65478516 615.546875 C359.82603376 591.81345632 363.80774126 566.53648814 364 542 C364.01369629 540.82840332 364.02739258 539.65680664 364.04150391 538.44970703 C364.19858289 523.27739158 364.1628233 508.13746761 363 493 C362.34 492.67 361.68 492.34 361 492 C360.85900879 492.80219971 360.71801758 493.60439941 360.57275391 494.4309082 C359.93080093 498.05944096 359.27803647 501.68594633 358.625 505.3125 C358.40328125 506.57513672 358.1815625 507.83777344 357.953125 509.13867188 C357.62441406 510.95141602 357.62441406 510.95141602 357.2890625 512.80078125 C356.99056396 514.47394409 356.99056396 514.47394409 356.68603516 516.1809082 C356 519 356 519 354 522 C352.125 522.36328125 352.125 522.36328125 350 522.3125 C349.29875 522.30863281 348.5975 522.30476562 347.875 522.30078125 C346 522 346 522 344 520 C343.76380706 514.02769286 345.16814158 508.00851377 346.41796875 502.203125 C348.03042991 494.40960341 349.02022692 486.59147593 349.88037109 478.68383789 C350.12528932 476.43484327 350.38021566 474.18715308 350.63671875 471.93945312 C359.63012516 392.11198406 342.62552137 302.75523721 300.578125 233.69140625 C298.89175712 230.81539767 297.44344377 227.87964217 296 224.875 C293.67466263 220.1384289 291.017366 215.94990423 287.9140625 211.69140625 C285.68167374 208.5523943 283.62077374 205.31653694 281.5625 202.0625 C275.31375276 192.25188777 268.3171709 183.03696255 261.19921875 173.84765625 C259.87453827 172.13239503 258.57622637 170.39560155 257.33203125 168.62109375 C256.89246094 168.08613281 256.45289063 167.55117188 256 167 C255.34 167 254.68 167 254 167 C253.773125 166.46890625 253.54625 165.9378125 253.3125 165.390625 C251.56630711 162.21005938 249.31938714 159.52001093 247 156.75 C246.32324219 155.91855469 246.32324219 155.91855469 245.6328125 155.0703125 C244.46926971 153.67268418 243.23905262 152.33114437 242 151 C241.34 151 240.68 151 240 151 C239.76297363 150.43772705 239.52594727 149.8754541 239.28173828 149.29614258 C237.70610699 146.47351167 235.78425642 144.54227994 233.4921875 142.26171875 C232.58726562 141.35873047 231.68234375 140.45574219 230.75 139.52539062 C230.27691406 139.0585083 229.80382812 138.59162598 229.31640625 138.1105957 C227.89541817 136.70765879 226.48279557 135.29626507 225.0703125 133.88476562 C220.42047919 129.26448634 215.71754769 124.7685373 210.74267578 120.49975586 C208.27185443 118.37335413 205.8914009 116.15242704 203.5 113.9375 C199.17424077 109.9936009 194.74968695 106.41104866 190 103 C188.79016722 102.08531324 187.58189141 101.16856429 186.375 100.25 C180.87415826 96.1243687 175.2610355 92.15440253 169.65283203 88.17675781 C168.23072746 87.16426977 166.81581738 86.14169019 165.40234375 85.1171875 C159.39879891 80.80746416 153.14640004 77.01355153 146.7890625 73.2578125 C143.33808061 71.2158217 139.95107222 69.08163379 136.5625 66.9375 C130.05403162 62.93168331 123.33121115 59.50615464 116.45703125 56.18945312 C113.67346193 54.84192235 110.899588 53.47529862 108.125 52.109375 C96.03369508 46.19121653 83.90248933 40.64634417 71.31054688 35.87939453 C69.11024743 35.04196019 66.92207406 34.17831038 64.734375 33.30859375 C3.20777334 9.26001862 -65.19768356 -1.22797212 -131 -2 C-132.14533203 -2.01393799 -133.29066406 -2.02787598 -134.47070312 -2.04223633 C-143.17977349 -2.09793387 -151.81229924 -1.78007543 -160.5 -1.1875 Z M-91 447 C-91.4125 447.92039062 -91.825 448.84078125 -92.25 449.7890625 C-100.12002037 467.1359376 -109.96268192 482.96425045 -121.54296875 498.08203125 C-124.04551506 501.37626782 -126.45146178 504.7411888 -128.875 508.09375 C-133.7013379 514.69447683 -138.66294502 521.1358343 -143.875 527.4375 C-144.4848877 528.17814697 -145.09477539 528.91879395 -145.72314453 529.68188477 C-149.61083438 534.38333714 -153.5739627 538.97760448 -157.7421875 543.43359375 C-159.2087056 544.92509137 -159.2087056 544.92509137 -159 547 C-159.99 547.33 -160.98 547.66 -162 548 C-163.71614849 549.6553521 -163.71614849 549.6553521 -165.375 551.6875 C-166.30119141 552.77417969 -166.30119141 552.77417969 -167.24609375 553.8828125 C-168.66299466 555.59319177 -170.05435851 557.32470684 -171.4375 559.0625 C-174.12317704 562.14120294 -176.99448883 564.70331322 -180.09375 567.3515625 C-183.13793262 569.9840319 -185.91286741 572.86527405 -188.6953125 575.76953125 C-196.41214593 583.68943925 -205.0585727 590.51615798 -214 597 C-214.73347656 597.54140625 -215.46695313 598.0828125 -216.22265625 598.640625 C-228.23833558 607.31535935 -241.23926951 614.6230918 -255.41943359 619.02246094 C-263.02980435 621.39821045 -269.62410066 624.15956634 -276.33726501 628.47593689 C-280.58595124 631.20382191 -284.9126352 633.56745901 -289.44921875 635.77734375 C-290.86348826 636.47516656 -292.27754468 637.17342135 -293.69140625 637.87207031 C-294.40707764 638.22458862 -295.12274902 638.57710693 -295.86010742 638.94030762 C-299.24587737 640.61696871 -302.6123182 642.33127338 -305.98046875 644.04296875 C-319.71490351 650.99607263 -333.47156818 657.79547063 -347.5625 664 C-381.99670446 678.56517778 -381.99670446 678.56517778 -407 705 C-408.6689658 710.0361775 -408.63804175 715.66051357 -407.25 720.75 C-403.85071078 726.8687206 -399.68706856 730.78319097 -393 733 C-387.95151939 733.50177596 -383.05349195 733.59342612 -378 733 C-377.34 732.34 -376.68 731.68 -376 731 C-376.65226562 730.67128906 -377.30453125 730.34257813 -377.9765625 730.00390625 C-386.28165149 725.48387994 -390.89965567 719.94872113 -394 711 C-394.53108222 706.73572214 -394.44715174 703.6707276 -392 700 C-389.0625 699.625 -389.0625 699.625 -386 700 C-383.26721081 702.12771907 -382.49099338 704.07972648 -381.625 707.375 C-380.27388966 711.70277531 -378.63376195 714.14490133 -375 717 C-371.36610365 718.74647632 -368.45723335 719.27236291 -364.4375 719.25 C-363.50808594 719.25515625 -362.57867187 719.2603125 -361.62109375 719.265625 C-358.90762598 718.9906387 -357.37665832 718.26459873 -355 717 C-351.375 716.6875 -351.375 716.6875 -348 717 C-346 720 -346 720 -346 722.9375 C-347.37102528 727.13626491 -349.16902298 727.8769642 -353 730 C-355.76066982 730.83097651 -358.52837824 731.31245416 -361.375 731.75 C-362.11105469 731.87503906 -362.84710938 732.00007813 -363.60546875 732.12890625 C-365.40152115 732.43213588 -367.20050871 732.71789448 -369 733 C-368.814375 733.928125 -368.62875 734.85625 -368.4375 735.8125 C-368 739 -368 739 -369 742 C-372.0625 743.6875 -372.0625 743.6875 -375 745 C-375 745.33 -375 745.66 -375 746 C-364.33134877 746.50892859 -354.44822209 744.97003514 -344 743 C-344.32226562 742.26652344 -344.64453125 741.53304688 -344.9765625 740.77734375 C-346.45582276 736.76301533 -346.5936868 733.22344282 -346 729 C-343.6802203 724.4532318 -340.1916313 720.80617066 -336.79296875 717.0234375 C-335.63975137 715.7219852 -334.51435255 714.39504958 -333.42578125 713.0390625 C-329.93200328 708.69247259 -326.82226641 705.6140187 -321.0546875 704.6875 C-315.93849958 704.37624902 -312.962968 705.59000428 -309 709 C-306.28391326 712.76223498 -305.61640181 715.51972121 -305.4375 720.125 C-305.26682596 724.86218809 -305.26682596 724.86218809 -303 729 C-295.61852673 728.70474107 -289.75289922 725.93299102 -283.07910156 722.92529297 C-279.2641386 721.22746422 -275.41202326 719.6175408 -271.5625 718 C-270.35134521 717.4886853 -270.35134521 717.4886853 -269.11572266 716.96704102 C-265.38288811 715.39636812 -261.64490446 713.84691167 -257.875 712.3671875 C-257.22845459 712.11324219 -256.58190918 711.85929687 -255.91577148 711.59765625 C-254.20782874 710.93166883 -252.49663444 710.2740361 -250.78515625 709.6171875 C-247.5845993 708.31375287 -244.52978803 706.77550878 -241.44921875 705.2109375 C-234.6651608 701.78225932 -227.73347309 698.74556547 -220.75 695.75 C-219.42622163 695.17939172 -218.10249197 694.60867042 -216.77880859 694.0378418 C-204.89541582 688.92203498 -192.95659792 683.94198159 -181 679 C-176.72800294 677.23196072 -172.45747659 675.46041232 -168.1875 673.6875 C-167.22730957 673.29087158 -166.26711914 672.89424316 -165.27783203 672.4855957 C-160.56694991 670.52978612 -155.89907113 668.51229722 -151.265625 666.37890625 C-147.07897778 664.45939114 -142.90192675 662.78994991 -138.5625 661.25 C-118.06836646 653.76566583 -94.56427671 644.83636937 -81 627 C-80.44747559 626.28537598 -79.89495117 625.57075195 -79.32568359 624.83447266 C-73.05858135 614.80986903 -74.46329469 603.66885722 -74.77752686 592.27502441 C-74.94274405 585.98228723 -74.99133073 579.68914592 -75.03125 573.39453125 C-75.03957855 572.14968964 -75.0479071 570.90484802 -75.05648804 569.62228394 C-75.13416409 540.72225226 -70.79806891 511.26940445 -61.76953125 483.79492188 C-60.82303067 480.84040516 -60.82303067 480.84040516 -61 477 C-63.03176032 475.10940532 -63.03176032 475.10940532 -65.6875 473.5 C-72.13122736 469.29964438 -76.92810703 465.16241529 -81.5625 459.0625 C-82.50116525 457.84494658 -83.43996501 456.62749685 -84.37890625 455.41015625 C-85.04237061 454.54414795 -85.04237061 454.54414795 -85.71923828 453.66064453 C-87.44995348 451.41658719 -89.22104132 449.20590876 -91 447 Z M-494 581 C-494.71800781 581.556875 -495.43601562 582.11375 -496.17578125 582.6875 C-505.44500254 590.32678717 -514.00688847 602.06485982 -519 613 C-518.67 613.66 -518.34 614.32 -518 615 C-510.43393028 611.41320326 -503.25872961 607.77866764 -496.484375 602.80859375 C-493.7536034 600.82062638 -490.95156119 598.97398109 -488.125 597.125 C-481.88806028 592.99403993 -475.93700326 588.54749186 -470 584 C-472.49493496 581.18368359 -475.26562818 579.59044019 -478.5625 577.8125 C-479.53316406 577.28269531 -480.50382812 576.75289062 -481.50390625 576.20703125 C-486.90603358 573.59473493 -489.80470381 577.64953971 -494 581 Z M225 680 C224.05640625 680.64066406 223.1128125 681.28132812 222.140625 681.94140625 C207.24611026 692.00047022 192.24095573 699.89977987 175.625 706.75 C173.51280324 707.6283832 171.40082824 708.50729982 169.2890625 709.38671875 C166.23070618 710.65908121 163.17163438 711.92936964 160.10839844 713.18994141 C136.15729732 723.05551841 136.15729732 723.05551841 116 739 C115.44183594 739.56074219 114.88367188 740.12148438 114.30859375 740.69921875 C107.11657165 748.45458462 98 762.18487481 98 773 C103.82036368 772.43631613 108.97835738 771.27449385 114.5 769.375 C115.28044678 769.10921143 116.06089355 768.84342285 116.86499023 768.56958008 C150.08873147 757.0130576 181.52806106 737.41841638 205 711 C205 710.34 205 709.68 205 709 C205.99 708.67 206.98 708.34 208 708 C209.73896019 705.97072926 211.34892353 703.95341955 212.9375 701.8125 C213.58235352 700.96461914 213.58235352 700.96461914 214.24023438 700.09960938 C218.58915686 694.33844195 222.67084136 688.41171294 226 682 C225.505 681.01 225.505 681.01 225 680 Z M-152 721 C-158.16110083 728.20535521 -159.31852473 736.32485697 -158.8125 745.5625 C-158.25663357 751.07591935 -157.12188235 755.89422059 -155 761 C-154.71125 761.72574219 -154.4225 762.45148437 -154.125 763.19921875 C-146.6300085 781.09351095 -132.89065046 797.72496457 -118 810 C-117.40558105 810.49612793 -116.81116211 810.99225586 -116.19873047 811.50341797 C-114.11753412 813.23867279 -112.02867534 814.96428741 -109.9375 816.6875 C-108.92816406 817.52619629 -108.92816406 817.52619629 -107.8984375 818.38183594 C-103.77871401 821.74573932 -99.67291765 824.46212231 -95 827 C-94.113125 827.61875 -93.22625 828.2375 -92.3125 828.875 C-91.1678125 829.431875 -91.1678125 829.431875 -90 830 C-80.4790041 826.38013621 -73.50504271 812.47445144 -69.3125 803.8125 C-64.86222089 793.34302982 -58.65438409 778.34884823 -61 767 C-64.09357284 762.85244746 -67.83321829 760.01996105 -72 757 C-73.39034768 755.85166666 -74.76739911 754.68686812 -76.125 753.5 C-76.75792969 752.94957031 -77.39085937 752.39914062 -78.04296875 751.83203125 C-81.97479957 748.15133533 -85.45412639 744.04724927 -89 740 C-104.8587331 721.01927806 -104.8587331 721.01927806 -127 712 C-137.37348665 711.40886381 -144.39783716 713.76867437 -152 721 Z M-322 718 C-323.94516812 720.09252934 -325.58413249 722.07958953 -327.25 724.375 C-327.70890625 724.97828125 -328.1678125 725.5815625 -328.640625 726.203125 C-331.16781481 729.27103329 -331.16781481 729.27103329 -332 733 C-330.06403108 733.22211116 -328.12610672 733.42722992 -326.1875 733.625 C-324.56908203 733.79902344 -324.56908203 733.79902344 -322.91796875 733.9765625 C-319.80375668 734.27460156 -319.80375668 734.27460156 -317 732 C-317.33 731.34 -317.66 730.68 -318 730 C-318.07065617 727.95944995 -318.08421976 725.91665743 -318.0625 723.875 C-318.05347656 722.77929688 -318.04445313 721.68359375 -318.03515625 720.5546875 C-318.02355469 719.71164062 -318.01195312 718.86859375 -318 718 C-319.32 718 -320.64 718 -322 718 Z " fill="#030303" transform="translate(772,152)"/>
<path d="M0 0 C1.00611328 -0.020625 2.01222656 -0.04125 3.04882812 -0.0625 C8.48813218 -0.09118453 12.72538951 -0.04817035 17.3125 3.25 C18.4375 6.6875 18.4375 6.6875 18.3125 10.25 C16.19152729 13.11510085 14.99328938 14.13148319 11.45019531 14.74829102 C10.35803711 14.75014404 9.26587891 14.75199707 8.140625 14.75390625 C6.92624756 14.77042236 5.71187012 14.78693848 4.46069336 14.80395508 C3.17428955 14.8067749 1.88788574 14.80959473 0.5625 14.8125 C-10.21351787 15.01042551 -20.24776833 15.48763953 -30.6875 18.25 C-31.69683594 18.51554687 -32.70617187 18.78109375 -33.74609375 19.0546875 C-39.77107088 20.86298077 -45.37055101 23.41485395 -51 26.1875 C-51.65806641 26.51129639 -52.31613281 26.83509277 -52.99414062 27.16870117 C-59.71423207 30.59074976 -66.25978891 34.25746937 -69.6875 41.25 C-70.47757341 44.16079679 -70.57439997 46.35204024 -69.6875 49.25 C-58.34449289 65.20001307 -28.83633777 71.53281013 -10.95166016 74.88378906 C-6.59706774 75.75851068 -3.78932411 77.03718784 -0.6875 80.25 C0.15951156 83.20339556 -0.28285767 85.11402194 -0.6875 88.25 C-4.90553368 91.06202245 -8.18977087 90.71985991 -13.11962891 89.79248047 C-15.93038945 89.14663223 -18.71402836 88.43305477 -21.5 87.6875 C-22.50885254 87.4208252 -23.51770508 87.15415039 -24.55712891 86.87939453 C-33.88820713 84.33428738 -42.79513286 81.03004761 -51.6875 77.25 C-52.60917969 76.8684375 -53.53085938 76.486875 -54.48046875 76.09375 C-59.75459278 73.8424888 -64.74095873 71.14485086 -69.6875 68.25 C-70.739375 67.651875 -71.79125 67.05375 -72.875 66.4375 C-76.59418563 63.54480007 -79.09223913 60.15379576 -81.6875 56.25 C-82.22890625 55.45722656 -82.7703125 54.66445313 -83.328125 53.84765625 C-85.79954953 49.12496283 -85.44708545 44.42784084 -84.6875 39.25 C-81.78343319 30.95580919 -76.52525354 25.52656733 -69.6875 20.25 C-69.13449219 19.79109375 -68.58148438 19.3321875 -68.01171875 18.859375 C-57.23025997 10.40542717 -42.75276198 6.03994304 -29.5625 3.0625 C-28.82233643 2.89540527 -28.08217285 2.72831055 -27.31958008 2.55615234 C-18.22089071 0.59742773 -9.29590895 0.04819655 0 0 Z " fill="#030303" transform="translate(250.6875,479.75)"/>
<path d="M0 0 C10.5688744 3.11868425 15.85750404 15.04664623 20.8125 24.125 C21.54129395 25.51048796 22.26528336 26.89851415 22.984375 28.2890625 C23.33435547 28.96316162 23.68433594 29.63726074 24.04492188 30.33178711 C24.70437455 31.61540983 25.35230146 32.90504596 25.98632812 34.20141602 C28.01859596 38.19956281 29.99620026 40.74608031 33.8125 43.125 C37.11064213 44.06155933 40.37905743 44.62571298 43.75390625 45.21875 C47.19259018 46.23761931 48.60867259 47.33454227 50.8125 50.125 C51.4532669 53.32883448 51.1046273 54.63369499 49.4375 57.4375 C45.32335502 60.08230749 41.56495753 59.81169272 36.8125 59.125 C25.58860638 55.79519075 18.92252866 49.93918456 12.8125 40.125 C11.033983 36.83486826 9.44362812 33.45819454 7.84375 30.07861328 C4.40139643 22.95904437 -0.05241257 15.86757361 -5.95703125 10.5234375 C-7.1875 9.125 -7.1875 9.125 -7.0625 5.5625 C-5.90877894 1.03002441 -4.64470311 0.18214522 0 0 Z " fill="#020302" transform="translate(373.1875,585.875)"/>
<path d="M0 0 C1.86254733 2.29236595 1.94213197 3.1789006 2.0625 6.0625 C1.918125 7.361875 1.77375 8.66125 1.625 10 C-1.375 12 -1.375 12 -5.125 12.75 C-10.63455119 14.06915294 -14.57146294 17.3042213 -17.71533203 22.00341797 C-18.9043242 24.16085145 -20.00067393 26.33984762 -21.0625 28.5625 C-25.8541756 38.32394887 -25.8541756 38.32394887 -29.375 42 C-33.08275499 43.05935857 -35.24354648 43.49319769 -38.8125 41.9375 C-40.375 40 -40.375 40 -40.9375 37.3125 C-40.33404668 33.75883048 -39.07398147 31.55455062 -37.0546875 28.60546875 C-35.68969092 26.48813684 -34.49414853 24.39895554 -33.3203125 22.17578125 C-27.62594028 11.42113723 -22.63752304 3.90284562 -10.703125 -0.34375 C-6.66930119 -1.48080101 -3.86914366 -1.62911312 0 0 Z " fill="#020202" transform="translate(427.375,688)"/>
<path d="" fill="#FFFFFF" transform="translate(0,0)"/>
<path d="" fill="#FFFFFF" transform="translate(0,0)"/>
</svg>
